<svg width="108" height="108" viewBox="0 0 108 108" fill="none" xmlns="http://www.w3.org/2000/svg">
<path fill-rule="evenodd" clip-rule="evenodd" d="M47.4109 0.000480117V27.3823H51.632V0L47.4109 0.000480117ZM21.5763 0.150074C17.8754 0.150074 14.8714 3.16735 14.8714 6.8849C14.8714 10.6024 17.8754 13.6125 21.5763 13.6125C24.5965 13.6125 27.1465 11.6055 27.9828 8.84783H38.7073V27.3823H42.9287V4.60767H27.8854C26.9575 2.00968 24.4817 0.150074 21.5763 0.150074ZM67.6968 0.150074C63.9959 0.150074 60.9993 3.16735 60.9993 6.8849C60.9993 9.79142 62.8315 12.2669 65.4002 13.2081V27.3821H69.6137V13.3354C72.3811 12.5078 74.4018 9.93286 74.4018 6.88513C74.4018 3.16735 71.3976 0.150074 67.6968 0.150074ZM56.3081 14.4516V27.3823H60.522V14.4516H56.3081ZM101.303 15.4177C97.6017 15.4177 94.5977 18.4355 94.5977 22.153C94.5977 25.2894 96.7332 27.9244 99.6246 28.6709V35.2559H77.4443V39.4888H103.845V28.3791C106.285 27.3742 108 24.967 108 22.1533C108 18.4357 105.003 15.4177 101.303 15.4177ZM0 21.921V26.1614H15.8857V39.4891H30.8767V35.2556H20.1071V21.9207L0 21.921ZM35.0902 31.623V69.9127H73.23V31.6225L35.0902 31.623ZM5.47408 44.3883V65.9568C2.73191 66.7988 0.738166 69.3605 0.738166 72.3922C0.738166 76.1093 3.73498 79.127 7.43584 79.127C11.1367 79.127 14.1404 76.1095 14.1404 72.3924C14.1404 69.4689 12.2813 66.9831 9.68805 66.0544V48.621H30.8765V44.3885L5.47408 44.3883ZM77.4443 44.3883V48.621H90.3241V44.3885L77.4443 44.3883ZM101.302 49.6552C98.7014 49.6552 96.4476 51.1439 95.3359 53.3183H77.4438L77.4443 57.5587H94.7023C95.2571 60.7155 98.0015 63.1174 101.303 63.1174C105.003 63.1174 108 60.0997 108 56.3824C108 52.6648 105.003 49.6552 101.302 49.6552ZM17.9962 53.3183V57.5587H30.8765V53.3183H17.9962ZM22.0906 62.0614V82.251C19.3465 83.0932 17.3473 85.6552 17.3473 88.6864C17.3473 92.4037 20.3513 95.4214 24.0521 95.4214C27.7527 95.4214 30.7488 92.4037 30.7488 88.6864C30.7488 85.7631 28.8954 83.2771 26.3041 82.3486V66.3008H30.8758V62.0609L22.0906 62.0614ZM77.4443 62.0614V66.3013H88.221V89.1438C85.5187 90.0126 83.5601 92.5624 83.5601 95.5639C83.5596 99.2812 86.5636 102.291 90.2644 102.291C93.9653 102.291 96.9619 99.2811 96.9619 95.5641C96.9619 92.6106 95.0681 90.1035 92.4345 89.1961V62.0614H77.4443ZM38.7073 74.1523V87.1058H42.9287V74.1523H38.7073ZM47.4112 74.1523V94.9046C44.7828 95.8141 42.891 98.3167 42.891 101.265C42.891 104.982 45.8952 108 49.5961 108C53.2969 108 56.2935 104.982 56.2935 101.265C56.2935 98.2608 54.3358 95.7173 51.632 94.8518V74.1523H47.4112ZM56.3083 74.1523V87.1058H60.5297L60.522 74.1526L56.3083 74.1523ZM65.3997 74.1523V107.73H69.6132V74.1523H65.3997ZM43.495 35.376H39.2811L39.2818 51.9784L53.4767 66.2198H69.1953V61.9866V51.5V35.376H43.495Z" fill="url(#paint0_linear_90_72)"/>
<defs>
<linearGradient id="paint0_linear_90_72" x1="0" y1="0" x2="99.1198" y2="115.613" gradientUnits="userSpaceOnUse">
<stop stop-color="#4091DB"/>
<stop offset="1" stop-color="#35D0FA"/>
</linearGradient>
</defs>
</svg>
