<svg width="108" height="108" viewBox="0 0 108 108" fill="none" xmlns="http://www.w3.org/2000/svg">
<path d="M27 0C23.4196 0 19.9858 1.33865 17.4541 3.72147C14.9223 6.10428 13.5 9.33607 13.5 12.7059V48.2824C15.6574 47.2434 17.9183 46.4071 20.25 45.7856V12.7059C20.25 11.021 20.9612 9.40508 22.227 8.21367C23.4929 7.02227 25.2098 6.35294 27 6.35294H81C82.7902 6.35294 84.5071 7.02227 85.773 8.21367C87.0388 9.40508 87.75 11.021 87.75 12.7059V88.9412C87.75 90.6261 87.0388 92.242 85.773 93.4334C84.5071 94.6248 82.7902 95.2941 81 95.2941H61.45C60.2213 97.5571 58.7343 99.6873 57.0153 101.647H81C84.5804 101.647 88.0142 100.308 90.5459 97.9256C93.0777 95.5428 94.5 92.311 94.5 88.9412V12.7059C94.5 9.33607 93.0777 6.10428 90.5459 3.72147C88.0142 1.33865 84.5804 0 81 0H27ZM27 16.2353C27 15.3928 27.3556 14.5849 27.9885 13.9892C28.6215 13.3935 29.4799 13.0588 30.375 13.0588H77.625C78.5201 13.0588 79.3786 13.3935 80.0115 13.9892C80.6444 14.5849 81 15.3928 81 16.2353V27.9412C81 28.7836 80.6444 29.5916 80.0115 30.1873C79.3786 30.783 78.5201 31.1176 77.625 31.1176H30.375C29.4799 31.1176 28.6215 30.783 27.9885 30.1873C27.3556 29.5916 27 28.7836 27 27.9412V16.2353ZM31.75 17.4118V26.7647H76.25V17.4118H31.75ZM101.25 25.4118H104.625C105.52 25.4118 106.379 25.7464 107.011 26.3421C107.644 26.9378 108 27.7458 108 28.5882V38.1176C108 38.9601 107.644 39.7681 107.011 40.3638C106.379 40.9595 105.52 41.2941 104.625 41.2941H101.25V25.4118ZM101.25 47.6471H104.625C105.52 47.6471 106.379 47.9817 107.011 48.5774C107.644 49.1731 108 49.9811 108 50.8235V60.3529C108 61.1954 107.644 62.0033 107.011 62.599C106.379 63.1947 105.52 63.5294 104.625 63.5294H101.25V47.6471ZM101.25 69.8824H104.625C105.52 69.8824 106.379 70.217 107.011 70.8127C107.644 71.4084 108 72.2164 108 73.0588V82.5882C108 83.4307 107.644 84.2386 107.011 84.8343C106.379 85.43 105.52 85.7647 104.625 85.7647H101.25V69.8824Z" fill="url(#paint0_linear_90_87)"/>
<path d="M31 74.7857L39 63L21 74.7857L27 81.2143L19 93L37 81.2143L31 74.7857Z" fill="url(#paint1_linear_90_87)"/>
<path fill-rule="evenodd" clip-rule="evenodd" d="M27 38.2353C27 37.3929 27.3556 36.5849 27.9885 35.9892C28.6215 35.3935 29.4799 35.0588 30.375 35.0588H77.625C78.5201 35.0588 79.3786 35.3935 80.0115 35.9892C80.6444 36.5849 81 37.3929 81 38.2353V43.9412C81 44.7836 80.6444 45.5916 80.0115 46.1873C79.3786 46.783 78.5201 47.1177 77.625 47.1177H30.375C29.4799 47.1177 28.6215 46.783 27.9885 46.1873C27.3556 45.5916 27 44.7836 27 43.9412V38.2353ZM31.75 42.7647V39.4118H76.25V42.7647H31.75Z" fill="url(#paint2_linear_90_87)"/>
<path d="M56 79C56 93.3594 44.3594 105 30 105C15.6406 105 4 93.3594 4 79C4 64.6406 15.6406 53 30 53C44.3594 53 56 64.6406 56 79Z" stroke="url(#paint3_linear_90_87)" stroke-width="6" stroke-linecap="round" stroke-linejoin="round"/>
<defs>
<linearGradient id="paint0_linear_90_87" x1="-5.74759e-08" y1="-5.74759e-08" x2="99.1198" y2="115.613" gradientUnits="userSpaceOnUse">
<stop stop-color="#4091DB"/>
<stop offset="1" stop-color="#35D0FA"/>
</linearGradient>
<linearGradient id="paint1_linear_90_87" x1="-5.74759e-08" y1="-5.74759e-08" x2="99.1198" y2="115.613" gradientUnits="userSpaceOnUse">
<stop stop-color="#4091DB"/>
<stop offset="1" stop-color="#35D0FA"/>
</linearGradient>
<linearGradient id="paint2_linear_90_87" x1="-5.74759e-08" y1="-5.74759e-08" x2="99.1198" y2="115.613" gradientUnits="userSpaceOnUse">
<stop stop-color="#4091DB"/>
<stop offset="1" stop-color="#35D0FA"/>
</linearGradient>
<linearGradient id="paint3_linear_90_87" x1="4" y1="53" x2="49.281" y2="110.309" gradientUnits="userSpaceOnUse">
<stop stop-color="#4091DB"/>
<stop offset="1" stop-color="#35D0FA"/>
</linearGradient>
</defs>
</svg>
