<svg width="96" height="108" viewBox="0 0 96 108" fill="none" xmlns="http://www.w3.org/2000/svg">
<g clip-path="url(#clip0_90_66)">
<path fill-rule="evenodd" clip-rule="evenodd" d="M48 4C43.6629 4 36.4154 5.65625 29.5954 7.5C22.6183 9.375 15.5846 11.5938 11.4486 12.9375C9.71935 13.5053 8.18626 14.5467 7.02545 15.9419C5.86465 17.3371 5.12321 19.0296 4.88632 20.825C1.14004 48.8062 9.83317 69.5438 20.3806 83.2625C24.8534 89.131 30.1865 94.299 36.2017 98.5938C38.628 100.3 40.8783 101.606 42.7891 102.5C44.5491 103.325 46.4411 104 48 104C49.5589 104 51.4446 103.325 53.2109 102.5C55.5145 101.387 57.7183 100.08 59.7983 98.5938C65.8137 94.2991 71.1468 89.1311 75.6194 83.2625C86.1668 69.5438 94.86 48.8062 91.1137 20.825C90.8772 19.0288 90.136 17.3353 88.9752 15.939C87.8144 14.5427 86.2811 13.5002 84.5514 12.9313C78.5473 10.9738 72.4966 9.1608 66.4046 7.49375C59.5846 5.6625 52.3371 4 48 4Z" stroke="url(#paint0_linear_90_66)" stroke-width="7" stroke-linecap="round" stroke-linejoin="round"/>
<path fill-rule="evenodd" clip-rule="evenodd" d="M61.4896 36.1625C62.0797 35.5757 62.8802 35.246 63.7147 35.246C64.5493 35.246 65.3497 35.5757 65.9399 36.1625C66.53 36.7493 66.8616 37.5451 66.8616 38.375C66.8616 39.2048 66.53 40.0007 65.9399 40.5875L47.0828 59.3375C46.7908 59.6285 46.444 59.8594 46.0622 60.0169C45.6803 60.1745 45.271 60.2556 44.8576 60.2556C44.4442 60.2556 44.0349 60.1745 43.6531 60.0169C43.2712 59.8594 42.9244 59.6285 42.6325 59.3375L33.2039 49.9625C32.9117 49.6719 32.6799 49.327 32.5218 48.9474C32.3636 48.5678 32.2822 48.1609 32.2822 47.75C32.2822 47.3391 32.3636 46.9322 32.5218 46.5526C32.6799 46.173 32.9117 45.828 33.2039 45.5375C33.4961 45.2469 33.843 45.0165 34.2248 44.8592C34.6066 44.702 35.0158 44.621 35.4291 44.621C35.8423 44.621 36.2515 44.702 36.6333 44.8592C37.0151 45.0165 37.362 45.2469 37.6542 45.5375L44.8576 52.7062L61.4896 36.1625Z" fill="url(#paint1_linear_90_66)"/>
</g>
<defs>
<linearGradient id="paint0_linear_90_66" x1="4" y1="4" x2="92.9893" y2="103.112" gradientUnits="userSpaceOnUse">
<stop stop-color="#4091DB"/>
<stop offset="1" stop-color="#35D0FA"/>
</linearGradient>
<linearGradient id="paint1_linear_90_66" x1="0.000489451" y1="-2.9958e-06" x2="96.0005" y2="108" gradientUnits="userSpaceOnUse">
<stop stop-color="#003B80"/>
<stop offset="0.0001" stop-color="#4091DB"/>
<stop offset="1" stop-color="#35D0FA"/>
</linearGradient>
<clipPath id="clip0_90_66">
<rect width="96" height="108" fill="white"/>
</clipPath>
</defs>
</svg>
