<svg width="108" height="108" viewBox="0 0 108 108" fill="none" xmlns="http://www.w3.org/2000/svg">
<g clip-path="url(#clip0_90_75)">
<path d="M38.5714 0C23.7021 0 11.5714 12.1307 11.5714 27C11.5714 36.2957 16.3157 44.55 23.5054 49.4216C9.747 55.323 0 68.9773 0 84.8571H7.71429C7.71429 67.77 21.4843 54 38.5714 54C43.875 54 48.816 55.3886 53.1553 57.7376C48.7137 63.2301 46.289 70.0792 46.2857 77.1429C46.2857 94.1374 60.1483 108 77.1429 108C94.1374 108 108 94.1374 108 77.1429C108 60.1483 94.1374 46.2857 77.1429 46.2857C70.6424 46.2913 64.3114 48.3589 59.0606 52.191C57.3277 51.1269 55.5145 50.1997 53.6374 49.4177C57.3069 46.9406 60.3134 43.6019 62.3939 39.6938C64.4743 35.7857 65.5653 31.4273 65.5714 27C65.5714 12.1307 53.4407 0 38.5714 0ZM38.5714 7.71429C49.2673 7.71429 57.8571 16.3041 57.8571 27C57.8571 37.6959 49.2673 46.2857 38.5714 46.2857C27.8756 46.2857 19.2857 37.6959 19.2857 27C19.2857 16.3041 27.8756 7.71429 38.5714 7.71429ZM77.1429 54C89.964 54 100.286 64.3217 100.286 77.1429C100.286 89.964 89.964 100.286 77.1429 100.286C64.3217 100.286 54 89.964 54 77.1429C54 64.3217 64.3217 54 77.1429 54ZM73.2857 61.7143V73.2857H61.7143V81H73.2857V92.5714H81V81H92.5714V73.2857H81V61.7143H73.2857Z" fill="url(#paint0_linear_90_75)"/>
</g>
<defs>
<linearGradient id="paint0_linear_90_75" x1="0" y1="0" x2="99.1198" y2="115.613" gradientUnits="userSpaceOnUse">
<stop stop-color="#4091DB"/>
<stop offset="1" stop-color="#35D0FA"/>
</linearGradient>
<clipPath id="clip0_90_75">
<rect width="108" height="108" fill="white"/>
</clipPath>
</defs>
</svg>
