<svg width="108" height="108" viewBox="0 0 108 108" fill="none" xmlns="http://www.w3.org/2000/svg">
<path d="M102.397 84.7833C99.9598 76.6791 95.5114 69.3271 89.4683 63.4152C92.8322 57.3204 94.5516 50.4512 94.4565 43.4863C94.3615 36.5214 92.4553 29.7019 88.9264 23.7016C85.3975 17.7013 80.368 12.7278 74.3347 9.27262C68.3015 5.8174 61.4733 4 54.525 4C47.5766 4 40.7485 5.8174 34.7152 9.27262C28.682 12.7278 23.6524 17.7013 20.1235 23.7016C16.5946 29.7019 14.6884 36.5214 14.5934 43.4863C14.4984 50.4512 16.2177 57.3204 19.5816 63.4152C13.503 69.3076 9.03416 76.6648 6.6026 84.7833C5.9528 87.0097 5.82648 89.3567 6.23356 91.6402C6.64063 93.9237 7.57002 96.0815 8.9488 97.9445C10.3536 99.8386 12.1841 101.374 14.2917 102.426C16.3993 103.478 18.7247 104.017 21.0791 104H87.9708C90.3168 104.009 92.6323 103.467 94.7306 102.415C96.8289 101.363 98.6514 99.8318 100.051 97.9445C101.43 96.0815 102.359 93.9237 102.766 91.6402C103.174 89.3567 103.047 87.0097 102.397 84.7833ZM92.0641 91.9394C91.5945 92.5838 90.9779 93.1063 90.2658 93.4632C89.5537 93.8201 88.7668 94.0011 87.9708 93.9911H21.0791C20.2831 94.0011 19.4962 93.8201 18.7841 93.4632C18.072 93.1063 17.4554 92.5838 16.9858 91.9394C16.5369 91.3195 16.236 90.6047 16.1062 89.8499C15.9764 89.095 16.0211 88.3204 16.237 87.5857C18.0289 81.5368 21.248 76.0097 25.6218 71.4721C29.3512 75.3932 33.8358 78.5148 38.804 80.6476C43.7721 82.7804 49.1204 83.8801 54.525 83.8801C59.9295 83.8801 65.2778 82.7804 70.2459 80.6476C75.2141 78.5148 79.6987 75.3932 83.4281 71.4721C87.802 76.0097 91.021 81.5368 92.8129 87.5857C93.0288 88.3204 93.0736 89.095 92.9437 89.8499C92.8139 90.6047 92.513 91.3195 92.0641 91.9394Z" stroke="url(#paint0_linear_90_92)" stroke-width="7" stroke-linecap="round" stroke-linejoin="round"/>
<path d="M54.5273 59.3584C57.7335 59.3584 60.8677 58.4075 63.5335 56.6259C66.1994 54.8443 68.2772 52.312 69.5041 49.3494C70.7311 46.3867 71.0521 43.1267 70.4266 39.9815C69.8011 36.8363 68.2572 33.9473 65.9901 31.6798C63.7229 29.4123 60.8344 27.8681 57.6898 27.2425C54.5452 26.6168 51.2858 26.9379 48.3236 28.1651C45.3615 29.3923 42.8297 31.4704 41.0484 34.1368C39.2672 36.8031 38.3164 39.9379 38.3164 43.1446C38.3164 47.4448 40.0243 51.5688 43.0645 54.6095C46.1046 57.6501 50.2279 59.3584 54.5273 59.3584Z" stroke="url(#paint1_linear_90_92)" stroke-width="7" stroke-linecap="round" stroke-linejoin="round"/>
<defs>
<linearGradient id="paint0_linear_90_92" x1="6" y1="4" x2="93.6559" y2="111.611" gradientUnits="userSpaceOnUse">
<stop stop-color="#4091DB"/>
<stop offset="1" stop-color="#35D0FA"/>
</linearGradient>
<linearGradient id="paint1_linear_90_92" x1="6" y1="4" x2="93.6559" y2="111.611" gradientUnits="userSpaceOnUse">
<stop stop-color="#4091DB"/>
<stop offset="1" stop-color="#35D0FA"/>
</linearGradient>
</defs>
</svg>
