<svg width="54" height="71" viewBox="0 0 54 71" fill="none" xmlns="http://www.w3.org/2000/svg">
<path d="M54 62.125V19.9688L33.75 0H9C6.61305 0 4.32387 0.935042 2.63604 2.59943C0.948211 4.26381 0 6.5212 0 8.875V62.125C0 64.4788 0.948211 66.7362 2.63604 68.4006C4.32387 70.065 6.61305 71 9 71H45C47.3869 71 49.6761 70.065 51.364 68.4006C53.0518 66.7362 54 64.4788 54 62.125ZM33.75 13.3125C33.75 15.0778 34.4612 16.7709 35.727 18.0192C36.9929 19.2675 38.7098 19.9688 40.5 19.9688H49.5V62.125C49.5 63.3019 49.0259 64.4306 48.182 65.2628C47.3381 66.095 46.1935 66.5625 45 66.5625H9C7.80653 66.5625 6.66193 66.095 5.81802 65.2628C4.97411 64.4306 4.5 63.3019 4.5 62.125V8.875C4.5 7.6981 4.97411 6.56941 5.81802 5.73721C6.66193 4.90502 7.80653 4.4375 9 4.4375H33.75V13.3125Z" fill="white"/>
<path d="M11.7118 62.5112C10.8347 62.1653 10.1281 61.4971 9.7408 60.6475C8.8633 58.9257 9.1558 57.204 10.1008 55.7573C10.9918 54.395 12.4678 53.2368 14.1373 52.265C16.252 51.0823 18.4874 50.1229 20.8063 49.4028C22.6072 46.2105 24.2033 42.9099 25.5853 39.5205C24.759 37.6691 24.1112 35.7451 23.6503 33.774C23.2633 31.999 23.1148 30.2417 23.4433 28.733C23.7808 27.1621 24.6763 25.751 26.3683 25.0809C27.2323 24.7392 28.1683 24.5484 29.0773 24.7392C29.5345 24.8352 29.9644 25.0304 30.3357 25.3105C30.7069 25.5907 31.0103 25.9488 31.2238 26.3589C31.6198 27.0867 31.7638 27.9387 31.7953 28.7463C31.8268 29.5805 31.7413 30.5035 31.5838 31.4709C31.2058 33.734 30.3688 36.503 29.2438 39.4318C30.4853 42.05 31.9612 44.5538 33.6538 46.9134C35.6568 46.7574 37.6713 46.8319 39.6568 47.1353C41.2948 47.4282 42.9598 48.0006 43.9768 49.1987C44.5168 49.8377 44.8453 50.6187 44.8768 51.4973C44.9083 52.3493 44.6653 53.1925 44.2558 53.9957C43.9011 54.74 43.3511 55.3773 42.6628 55.8417C41.9824 56.2793 41.1791 56.4936 40.3678 56.454C38.8783 56.3919 37.4248 55.5843 36.1693 54.6036C34.6426 53.3589 33.267 51.9443 32.0698 50.388C29.0267 50.7285 26.0197 51.3314 23.0833 52.1896C21.7386 54.5413 20.2036 56.7821 18.4933 58.8902C17.1793 60.4433 15.7528 61.8012 14.3218 62.3825C13.4996 62.7493 12.567 62.7953 11.7118 62.5112ZM17.9173 54.0755C17.1703 54.4128 16.4773 54.7678 15.8518 55.1317C14.3758 55.9925 13.4173 56.8312 12.9403 57.559C12.5173 58.2024 12.5083 58.6683 12.7603 59.1609C12.8053 59.2585 12.8503 59.3207 12.8773 59.3562C12.931 59.342 12.9836 59.3242 13.0348 59.3029C13.6513 59.0544 14.6323 58.2601 15.8923 56.7647C16.6089 55.8995 17.2846 55.0022 17.9173 54.0755ZM25.2973 48.1737C26.8 47.8278 28.3162 47.5421 29.8423 47.3172C29.0229 46.0807 28.2572 44.8105 27.5473 43.5098C26.8415 45.0833 26.0912 46.6371 25.2973 48.1692V48.1737ZM36.3043 50.1705C36.9793 50.8938 37.6363 51.5018 38.2618 51.9899C39.3418 52.833 40.0933 53.1126 40.5028 53.1259C40.6124 53.14 40.7237 53.1165 40.8178 53.0593C41.005 52.9136 41.1507 52.7225 41.2408 52.5047C41.4008 52.2344 41.4919 51.9298 41.5063 51.6172C41.5037 51.5129 41.462 51.4133 41.3893 51.3376C41.1553 51.0625 40.4893 50.6631 39.0583 50.4102C38.1481 50.26 37.2272 50.1814 36.3043 50.175V50.1705ZM27.3493 34.6127C27.728 33.408 28.0286 32.1807 28.2493 30.9384C28.3888 30.1042 28.4428 29.4163 28.4203 28.875C28.4215 28.5763 28.3729 28.2794 28.2763 27.9963C28.0512 28.0238 27.8314 28.0836 27.6238 28.1738C27.2323 28.3292 26.9128 28.6442 26.7418 29.4297C26.5618 30.2817 26.6068 31.5108 26.9488 33.0773C27.0568 33.5698 27.1918 34.0846 27.3538 34.6127H27.3493Z" fill="white"/>
</svg>
