<svg width="29" height="27" viewBox="0 0 29 27" fill="none" xmlns="http://www.w3.org/2000/svg">
<path d="M26.8531 0.0027645C26.4949 0.0297726 26.1434 0.116862 25.8122 0.260636H25.8077C25.4898 0.391307 23.9781 1.05044 21.6798 2.04955L13.4442 5.64473C7.53463 8.22345 1.72548 10.7629 1.72548 10.7629L1.79465 10.7351C1.79465 10.7351 1.39414 10.8716 0.975773 11.1687C0.717311 11.3392 0.494903 11.5623 0.322008 11.8244C0.11673 12.1366 -0.0483849 12.6142 0.0129754 13.108C0.113383 13.9429 0.635503 14.4436 1.01036 14.72C1.38968 14.9998 1.75114 15.1305 1.75114 15.1305H1.76007L7.20774 17.0327C7.45207 17.8457 8.86782 22.6701 9.20809 23.7814C9.4089 24.4451 9.60414 24.8603 9.84847 25.1771C9.96672 25.339 10.1051 25.4743 10.2713 25.583C10.3577 25.6351 10.4499 25.6762 10.5457 25.7056L10.49 25.6917C10.5067 25.6963 10.5201 25.7102 10.5324 25.7148C10.577 25.7275 10.6071 25.7322 10.664 25.7414C11.5264 26.012 12.2192 25.4569 12.2192 25.4569L12.2583 25.4246L15.4746 22.3891L20.8654 26.6758L20.9881 26.7301C22.1116 27.2412 23.2495 26.9568 23.8509 26.4549C24.4567 25.9496 24.6921 25.3031 24.6921 25.3031L24.7311 25.1991L28.8969 3.07873C29.0152 2.53292 29.0453 2.0218 28.9148 1.52571C28.7801 1.02364 28.4694 0.591832 28.0435 0.314986C27.6858 0.0896256 27.2711 -0.0191506 26.8531 0.0027645ZM26.7404 2.37334C26.7359 2.44619 26.7493 2.4381 26.7181 2.57802V2.59074L22.5913 24.481C22.5735 24.5122 22.5433 24.5804 22.4608 24.6486C22.3738 24.7203 22.3046 24.7654 21.942 24.6163L15.3486 19.3767L11.3657 23.1396L12.2025 17.6005L22.9751 7.19312C23.4191 6.76526 23.2707 6.67506 23.2707 6.67506C23.302 6.15007 22.6002 6.52126 22.6002 6.52126L9.0162 15.2438L9.01173 15.2207L2.50085 12.9484V12.9438L2.48412 12.9403C2.49553 12.9364 2.50671 12.9318 2.51759 12.9264L2.55329 12.9079L2.58788 12.8952C2.58788 12.8952 8.40148 10.3558 14.311 7.77709C17.2697 6.48542 20.2507 5.18449 22.5433 4.18076C23.903 3.58754 25.2641 2.99778 26.6266 2.4115C26.7181 2.37449 26.6746 2.37449 26.7404 2.37449V2.37334Z" fill="white"/>
</svg>
