<svg width="28" height="27" viewBox="0 0 28 27" fill="none" xmlns="http://www.w3.org/2000/svg">
<g filter="url(#filter0_d_90_47)">
<path d="M22.569 0.335187C22.3303 0.353192 22.0959 0.411252 21.8751 0.507101H21.8721C21.6602 0.594215 20.6524 1.03364 19.1202 1.69971L13.6298 4.0965C9.69008 5.81564 5.81731 7.50858 5.81731 7.50858L5.86343 7.49008C5.86343 7.49008 5.59642 7.58105 5.31751 7.77917C5.1452 7.89282 4.99693 8.04153 4.88166 8.21628C4.74481 8.42443 4.63474 8.74282 4.67564 9.072C4.74258 9.62861 5.09066 9.96241 5.34056 10.1467C5.59344 10.3332 5.83442 10.4203 5.83442 10.4203H5.84037L9.47216 11.6885C9.63504 12.2305 10.5789 15.4467 10.8057 16.1876C10.9396 16.6301 11.0698 16.9068 11.2326 17.1181C11.3115 17.226 11.4037 17.3162 11.5145 17.3887C11.5721 17.4234 11.6336 17.4508 11.6975 17.4704L11.6603 17.4611C11.6715 17.4642 11.6804 17.4735 11.6886 17.4766C11.7183 17.485 11.7384 17.4881 11.7763 17.4943C12.3513 17.6747 12.8131 17.3046 12.8131 17.3046L12.8392 17.2831L14.9834 15.2594L18.5773 18.1172L18.6591 18.1534C19.4081 18.4942 20.1667 18.3045 20.5676 17.9699C20.9714 17.6331 21.1284 17.2021 21.1284 17.2021L21.1544 17.1327L23.9316 2.38583C24.0104 2.02196 24.0305 1.68121 23.9435 1.35049C23.8538 1.01577 23.6466 0.727898 23.3626 0.543334C23.1242 0.393094 22.8477 0.320576 22.569 0.335187ZM22.4939 1.91557C22.4909 1.96414 22.4999 1.95874 22.479 2.05202V2.0605L19.7279 16.654C19.716 16.6748 19.6959 16.7203 19.6409 16.7658C19.5828 16.8136 19.5367 16.8436 19.295 16.7442L14.8994 13.2512L12.2442 15.7597L12.802 12.067L19.9837 5.12876C20.2797 4.84352 20.1808 4.78338 20.1808 4.78338C20.2016 4.43339 19.7338 4.68085 19.7338 4.68085L10.6778 10.4959L10.6748 10.4805L6.33423 8.96562V8.96253L6.32307 8.96022C6.33068 8.9576 6.33813 8.95451 6.34539 8.95097L6.36919 8.93863L6.39224 8.93015C6.39224 8.93015 10.268 7.23722 14.2077 5.51807C16.1801 4.65695 18.1675 3.78967 19.6959 3.12051C20.6023 2.72504 21.5097 2.33187 22.4181 1.94101C22.479 1.91634 22.45 1.91634 22.4939 1.91634V1.91557Z" fill="white"/>
</g>
<defs>
<filter id="filter0_d_90_47" x="0.666992" y="0.333344" width="27.333" height="26" filterUnits="userSpaceOnUse" color-interpolation-filters="sRGB">
<feFlood flood-opacity="0" result="BackgroundImageFix"/>
<feColorMatrix in="SourceAlpha" type="matrix" values="0 0 0 0 0 0 0 0 0 0 0 0 0 0 0 0 0 0 127 0" result="hardAlpha"/>
<feOffset dy="4"/>
<feGaussianBlur stdDeviation="2"/>
<feComposite in2="hardAlpha" operator="out"/>
<feColorMatrix type="matrix" values="0 0 0 0 0 0 0 0 0 0 0 0 0 0 0 0 0 0 0.25 0"/>
<feBlend mode="normal" in2="BackgroundImageFix" result="effect1_dropShadow_90_47"/>
<feBlend mode="normal" in="SourceGraphic" in2="effect1_dropShadow_90_47" result="shape"/>
</filter>
</defs>
</svg>
