<svg width="150" height="45" viewBox="0 0 150 45" fill="none" xmlns="http://www.w3.org/2000/svg">
<g clip-path="url(#clip0_90_34)">
<path fill-rule="evenodd" clip-rule="evenodd" d="M52.0744 0.128196C52.0744 9.31538 52.0744 18.5052 52.0744 27.6923C49.6192 27.6923 47.163 27.6923 44.7078 27.6923C44.7078 18.5479 44.7078 9.40076 44.7078 0.256401C45.2895 0.0410168 46.3359 0.128196 47.121 0.128196C48.772 0.128196 50.4234 0.128196 52.0744 0.128196ZM55.7577 0.128196C65.2402 0.128196 74.7257 0.128196 84.2082 0.128196C84.3988 0.652299 84.3352 1.58409 84.3352 2.30768C84.3352 3.7605 84.3352 5.21384 84.3352 6.66666C83.4991 6.97525 81.9668 6.79486 80.9059 6.79486C78.4929 6.79486 76.0792 6.79486 73.6663 6.79486C73.6663 13.76 73.6663 20.7272 73.6663 27.6923C71.211 27.6923 68.7549 27.6923 66.2996 27.6923C66.2996 20.7272 66.2996 13.76 66.2996 6.79486C62.786 6.79486 59.2714 6.79486 55.7577 6.79486C55.7577 4.57281 55.7577 2.35025 55.7577 0.128196ZM108.721 7.30768C108.721 9.35871 108.721 11.4105 108.721 13.4615C107.938 13.3799 106.896 13.0355 106.181 12.8205C105.292 12.735 104.403 12.6496 103.514 12.5641C103.514 12.5214 103.514 12.4786 103.514 12.4359C103.048 12.4359 102.582 12.4359 102.117 12.4359C102.117 12.3932 102.117 12.3504 102.117 12.3077C101.494 12.1324 98.8886 12.3054 98.4334 12.4359C98.0948 12.4359 97.7559 12.4359 97.4173 12.4359C97.4173 12.4786 97.4173 12.5214 97.4173 12.5641C97.248 12.5641 97.0786 12.5641 96.9093 12.5641C96.9093 12.6068 96.9093 12.6496 96.9093 12.6923C96.6553 12.735 96.4012 12.7778 96.1472 12.8205C96.1472 12.8632 96.1472 12.906 96.1472 12.9487C95.9779 12.9914 95.8085 13.0342 95.6392 13.0769C95.6392 13.1196 95.6392 13.1624 95.6392 13.2051C95.5545 13.2051 95.4699 13.2051 95.3852 13.2051C95.3429 13.2906 95.3004 13.376 95.2581 13.4615C95.0464 13.6324 94.8348 13.8035 94.6231 13.9744C94.5384 14.2308 94.4538 14.4872 94.3691 14.7436C94.3268 14.7436 94.2843 14.7436 94.2421 14.7436C94.1998 15.5982 94.1573 16.4531 94.115 17.3077C94.1149 18.6914 94.0674 20.0654 94.6231 20.8974C94.7924 21.0256 94.9618 21.1538 95.1311 21.282C95.2158 21.4102 95.3004 21.5385 95.3852 21.6667C95.4699 21.6667 95.5545 21.6667 95.6392 21.6667C95.6815 21.7522 95.7239 21.8376 95.7662 21.9231C95.8932 21.9231 96.0202 21.9231 96.1472 21.9231C96.1472 21.9658 96.1472 22.0086 96.1472 22.0513C96.2319 22.0513 96.3165 22.0513 96.4012 22.0513C96.4012 22.094 96.4012 22.1368 96.4012 22.1795C96.5283 22.1795 96.6553 22.1795 96.7823 22.1795C96.7823 22.2222 96.7823 22.265 96.7823 22.3077C97.2479 22.3504 97.7138 22.3932 98.1794 22.4359C98.1794 22.4786 98.1794 22.5214 98.1794 22.5641C98.8143 22.5641 99.4496 22.5641 100.085 22.5641C101.748 22.5642 103.472 22.5622 104.784 22.1795C105.08 22.1795 105.377 22.1795 105.673 22.1795C105.673 22.1368 105.673 22.094 105.673 22.0513C105.885 22.0513 106.096 22.0513 106.308 22.0513C106.308 22.0086 106.308 21.9658 106.308 21.9231C106.52 21.9231 106.731 21.9231 106.943 21.9231C106.943 21.8804 106.943 21.8376 106.943 21.7949C107.536 21.6667 108.129 21.5385 108.721 21.4102C108.721 23.4613 108.721 25.5131 108.721 27.5641C108.425 27.6068 108.129 27.6496 107.832 27.6923C107.832 27.735 107.832 27.7778 107.832 27.8205C107.621 27.8205 107.409 27.8205 107.197 27.8205C107.197 27.8632 107.197 27.906 107.197 27.9487C106.943 27.9487 106.689 27.9487 106.435 27.9487C106.435 27.9914 106.435 28.0342 106.435 28.0769C106.181 28.0769 105.927 28.0769 105.673 28.0769C105.673 28.1196 105.673 28.1624 105.673 28.2051C105.377 28.2051 105.08 28.2051 104.784 28.2051C104.784 28.2478 104.784 28.2906 104.784 28.3333C104.403 28.3333 104.022 28.3333 103.641 28.3333C103.641 28.376 103.641 28.4188 103.641 28.4615C103.048 28.4615 102.455 28.4615 101.863 28.4615C101.863 28.5042 101.863 28.547 101.863 28.5897C101.215 28.772 98.4076 28.5982 97.9254 28.4615C97.4173 28.4615 96.9093 28.4615 96.4012 28.4615C96.4012 28.4188 96.4012 28.376 96.4012 28.3333C96.1049 28.3333 95.8085 28.3333 95.5122 28.3333C95.5122 28.2906 95.5122 28.2478 95.5122 28.2051C95.3004 28.2051 95.0888 28.2051 94.8771 28.2051C94.8771 28.1624 94.8771 28.1196 94.8771 28.0769C94.7078 28.0769 94.5384 28.0769 94.3691 28.0769C94.3691 28.0342 94.3691 27.9914 94.3691 27.9487C94.2421 27.9487 94.115 27.9487 93.988 27.9487C93.988 27.906 93.988 27.8632 93.988 27.8205C93.861 27.8205 93.734 27.8205 93.607 27.8205C93.607 27.7778 93.607 27.735 93.607 27.6923C93.48 27.6923 93.353 27.6923 93.226 27.6923C93.226 27.6496 93.226 27.6068 93.226 27.5641C93.1413 27.5641 93.0567 27.5641 92.9719 27.5641C92.9719 27.5214 92.9719 27.4786 92.9719 27.4359C92.8449 27.4359 92.7179 27.4359 92.5909 27.4359C92.5909 27.3932 92.5909 27.3504 92.5909 27.3077C92.4216 27.265 92.2522 27.2222 92.0829 27.1795C92.0829 27.1368 92.0829 27.094 92.0829 27.0513C91.9982 27.0513 91.9136 27.0513 91.8288 27.0513C91.7865 26.9658 91.7441 26.8804 91.7018 26.7949C91.5325 26.7522 91.3631 26.7094 91.1938 26.6667C91.1091 26.5385 91.0245 26.4102 90.9398 26.282C90.855 26.282 90.7705 26.282 90.6857 26.282C90.5587 26.1111 90.4317 25.9401 90.3047 25.7692C89.9661 25.4701 89.6272 25.1709 89.2886 24.8718C89.2886 24.7863 89.2886 24.7009 89.2886 24.6154C89.2039 24.5727 89.1193 24.5299 89.0346 24.4872C89.0346 24.4017 89.0346 24.3163 89.0346 24.2308C88.9499 24.1881 88.8653 24.1452 88.7806 24.1026C88.7383 23.9317 88.6959 23.7606 88.6536 23.5897C88.6113 23.5897 88.5689 23.5897 88.5266 23.5897C88.5266 23.5042 88.5266 23.4188 88.5266 23.3333C88.4843 23.3333 88.4418 23.3333 88.3996 23.3333C88.3996 23.2051 88.3996 23.0769 88.3996 22.9487C88.3573 22.9487 88.3148 22.9487 88.2725 22.9487C88.2725 22.8205 88.2725 22.6923 88.2725 22.5641C88.2302 22.5641 88.1878 22.5641 88.1455 22.5641C88.1455 22.4359 88.1455 22.3077 88.1455 22.1795C88.1032 22.1795 88.0608 22.1795 88.0185 22.1795C88.0185 22.0086 88.0185 21.8376 88.0185 21.6667C87.9762 21.6667 87.9338 21.6667 87.8915 21.6667C87.8915 21.4958 87.8915 21.3247 87.8915 21.1538C87.8492 21.1538 87.8068 21.1538 87.7645 21.1538C87.7645 20.8974 87.7645 20.641 87.7645 20.3846C87.7222 20.3846 87.6798 20.3846 87.6375 20.3846C87.6375 18.8891 87.6375 17.3931 87.6375 15.8974C87.6382 14.1173 88 12.8687 88.5266 11.6667C88.5266 11.5385 88.5266 11.4102 88.5266 11.282C88.5689 11.282 88.6113 11.282 88.6536 11.282C88.6536 11.1965 88.6536 11.1111 88.6536 11.0256C88.7383 10.9829 88.8229 10.9401 88.9076 10.8974C88.9499 10.7265 88.9923 10.5555 89.0346 10.3846C89.1616 10.2991 89.2886 10.2137 89.4156 10.1282C89.4156 10.0427 89.4156 9.9573 89.4156 9.87179C89.5849 9.74358 89.7544 9.61538 89.9237 9.48717C90.1777 9.18807 90.4317 8.88884 90.6857 8.58974C90.7705 8.58974 90.855 8.58974 90.9398 8.58974C90.9821 8.50422 91.0245 8.41884 91.0668 8.33332C91.1938 8.29063 91.3208 8.24781 91.4478 8.20512C91.4478 8.16243 91.4478 8.11961 91.4478 8.07691C91.6171 8.03422 91.7866 7.9914 91.9559 7.94871C91.9559 7.90602 91.9559 7.8632 91.9559 7.8205C92.0406 7.8205 92.1252 7.8205 92.2099 7.8205C92.2522 7.73499 92.2946 7.64961 92.3369 7.56409C92.4639 7.56409 92.5909 7.56409 92.7179 7.56409C92.7179 7.5214 92.7179 7.47858 92.7179 7.43589C92.8026 7.43589 92.8872 7.43589 92.9719 7.43589C92.9719 7.3932 92.9719 7.35038 92.9719 7.30768C93.1835 7.26499 93.3954 7.22217 93.607 7.17948C93.607 7.13679 93.607 7.09397 93.607 7.05127C93.734 7.05127 93.861 7.05127 93.988 7.05127C93.988 7.00858 93.988 6.96576 93.988 6.92307C94.1573 6.92307 94.3268 6.92307 94.4961 6.92307C94.4961 6.88038 94.4961 6.83755 94.4961 6.79486C94.6654 6.79486 94.8348 6.79486 95.0041 6.79486C95.0041 6.75217 95.0041 6.70935 95.0041 6.66666C95.2157 6.66666 95.4274 6.66666 95.6392 6.66666C95.6392 6.62397 95.6392 6.58114 95.6392 6.53845C95.9778 6.53845 96.3166 6.53845 96.6553 6.53845C96.6553 6.49576 96.6553 6.45294 96.6553 6.41025C97.4172 6.41025 98.1795 6.41025 98.9415 6.41025C98.9415 6.36756 98.9415 6.32473 98.9415 6.28204C99.4918 6.28204 100.042 6.28204 100.593 6.28204C100.593 6.32473 100.593 6.36756 100.593 6.41025C101.524 6.41025 102.455 6.41025 103.387 6.41025C103.387 6.45294 103.387 6.49576 103.387 6.53845C103.81 6.53845 104.234 6.53845 104.657 6.53845C104.657 6.58114 104.657 6.62397 104.657 6.66666C104.953 6.66666 105.25 6.66666 105.546 6.66666C105.546 6.70935 105.546 6.75217 105.546 6.79486C105.8 6.79486 106.054 6.79486 106.308 6.79486C106.308 6.83755 106.308 6.88038 106.308 6.92307C106.562 6.92307 106.816 6.92307 107.07 6.92307C107.57 7.07461 108.087 7.27217 108.721 7.30768ZM124.598 6.28204C126.249 6.36756 127.9 6.45294 129.551 6.53845C129.551 6.58114 129.551 6.62397 129.551 6.66666C129.763 6.66666 129.974 6.66666 130.186 6.66666C130.186 6.70935 130.186 6.75217 130.186 6.79486C130.398 6.79486 130.609 6.79486 130.821 6.79486C130.821 6.83755 130.821 6.88038 130.821 6.92307C130.948 6.92307 131.075 6.92307 131.202 6.92307C131.202 6.96576 131.202 7.00858 131.202 7.05127C131.329 7.05127 131.456 7.05127 131.583 7.05127C131.583 7.09397 131.583 7.13679 131.583 7.17948C131.837 7.22217 132.091 7.26499 132.345 7.30768C132.345 7.35038 132.345 7.3932 132.345 7.43589C132.599 7.5214 132.853 7.60679 133.107 7.6923C133.107 7.73499 133.107 7.77781 133.107 7.8205C133.277 7.8632 133.446 7.90602 133.615 7.94871C133.615 7.9914 133.615 8.03422 133.615 8.07691C133.742 8.11961 133.869 8.16243 133.996 8.20512C134.039 8.29063 134.081 8.37602 134.124 8.46153C134.208 8.46153 134.293 8.46153 134.378 8.46153C134.505 8.63243 134.632 8.80345 134.759 8.97435C134.843 8.97435 134.928 8.97435 135.013 8.97435C135.14 9.14525 135.267 9.31627 135.394 9.48717C135.436 9.48717 135.478 9.48717 135.521 9.48717C135.521 9.57268 135.521 9.65807 135.521 9.74358C135.69 9.87179 135.859 9.99999 136.029 10.1282C136.029 10.2137 136.029 10.2991 136.029 10.3846C136.113 10.4273 136.198 10.4701 136.283 10.5128C136.325 10.6837 136.367 10.8547 136.41 11.0256C136.494 11.0683 136.579 11.1111 136.664 11.1538C136.664 11.282 136.664 11.4102 136.664 11.5385C136.706 11.5385 136.748 11.5385 136.791 11.5385C136.833 11.7094 136.875 11.8804 136.918 12.0513C136.96 12.0513 137.002 12.0513 137.045 12.0513C137.214 12.7777 137.384 13.5044 137.553 14.2308C137.553 14.5726 137.553 14.9146 137.553 15.2564C137.595 15.2564 137.638 15.2564 137.68 15.2564C137.68 15.6837 137.68 16.1111 137.68 16.5385C137.68 17.5663 137.782 18.9287 137.553 19.7436C137.553 20.0854 137.553 20.4274 137.553 20.7692C137.511 20.7692 137.468 20.7692 137.426 20.7692C137.426 20.9829 137.426 21.1965 137.426 21.4102C137.383 21.4102 137.341 21.4102 137.299 21.4102C137.299 21.5811 137.299 21.7522 137.299 21.9231C137.256 21.9231 137.214 21.9231 137.172 21.9231C137.172 22.094 137.172 22.265 137.172 22.4359C137.129 22.4359 137.087 22.4359 137.045 22.4359C137.045 22.5641 137.045 22.6923 137.045 22.8205C137.002 22.8205 136.96 22.8205 136.918 22.8205C136.918 22.906 136.918 22.9914 136.918 23.0769C136.875 23.0769 136.833 23.0769 136.791 23.0769C136.791 23.2051 136.791 23.3333 136.791 23.4615C136.748 23.4615 136.706 23.4615 136.664 23.4615C136.664 23.547 136.664 23.6324 136.664 23.7179C136.621 23.7179 136.579 23.7179 136.537 23.7179C136.537 23.8035 136.537 23.8888 136.537 23.9743C136.452 24.017 136.367 24.0599 136.283 24.1026C136.283 24.1881 136.283 24.2735 136.283 24.359C136.198 24.4017 136.113 24.4445 136.029 24.4872C136.029 24.5727 136.029 24.6581 136.029 24.7436C135.902 24.8291 135.775 24.9145 135.648 25C135.648 25.0855 135.648 25.1709 135.648 25.2564C135.394 25.47 135.14 25.6838 134.886 25.8974C134.843 25.9829 134.801 26.0683 134.759 26.1538C134.674 26.1538 134.589 26.1538 134.505 26.1538C134.42 26.282 134.335 26.4102 134.251 26.5385C134.166 26.5385 134.081 26.5385 133.996 26.5385C133.954 26.624 133.912 26.7094 133.869 26.7949C133.7 26.8376 133.531 26.8804 133.361 26.9231C133.361 26.9658 133.361 27.0086 133.361 27.0513C133.277 27.0513 133.192 27.0513 133.107 27.0513C133.107 27.094 133.107 27.1368 133.107 27.1795C132.853 27.265 132.599 27.3504 132.345 27.4359C132.345 27.4786 132.345 27.5214 132.345 27.5641C132.218 27.5641 132.091 27.5641 131.964 27.5641C131.964 27.6068 131.964 27.6496 131.964 27.6923C131.88 27.6923 131.795 27.6923 131.71 27.6923C131.71 27.735 131.71 27.7778 131.71 27.8205C131.583 27.8205 131.456 27.8205 131.329 27.8205C131.329 27.8632 131.329 27.906 131.329 27.9487C131.16 27.9487 130.991 27.9487 130.821 27.9487C130.821 27.9914 130.821 28.0342 130.821 28.0769C130.652 28.0769 130.482 28.0769 130.313 28.0769C129.401 28.3742 127.891 28.5626 126.757 28.5897C121.324 28.7197 117.276 27.8904 115.072 24.7436C114.945 24.6581 114.818 24.5727 114.691 24.4872C114.649 24.3163 114.606 24.1452 114.564 23.9743C114.479 23.9317 114.395 23.8888 114.31 23.8461C114.31 23.7606 114.31 23.6752 114.31 23.5897C114.267 23.5897 114.225 23.5897 114.183 23.5897C114.183 23.5042 114.183 23.4188 114.183 23.3333C114.14 23.3333 114.098 23.3333 114.056 23.3333C114.013 23.0769 113.971 22.8205 113.929 22.5641C113.251 20.811 113.293 18.8881 113.294 16.4102C113.294 14.7083 113.461 13.4881 113.929 12.3077C113.929 12.1795 113.929 12.0513 113.929 11.9231C115.221 8.94858 117.422 7.67025 120.66 6.66666C121.507 6.58115 122.354 6.49576 123.201 6.41025C123.652 6.40858 124.348 6.49935 124.598 6.28204ZM123.963 12.3077C123.663 12.5606 122.857 12.4115 122.438 12.5641C122.438 12.6068 122.438 12.6496 122.438 12.6923C122.311 12.6923 122.184 12.6923 122.057 12.6923C122.057 12.735 122.057 12.7778 122.057 12.8205C121.973 12.8205 121.888 12.8205 121.803 12.8205C121.803 12.8632 121.803 12.906 121.803 12.9487C121.719 12.9487 121.634 12.9487 121.549 12.9487C121.549 12.9914 121.549 13.0342 121.549 13.0769C121.465 13.0769 121.38 13.0769 121.295 13.0769C121.253 13.1624 121.211 13.2478 121.168 13.3333C121.084 13.3333 120.999 13.3333 120.914 13.3333C120.787 13.5042 120.66 13.6752 120.533 13.8461C120.491 13.8461 120.449 13.8461 120.406 13.8461C120.406 13.9317 120.406 14.017 120.406 14.1026C120.322 14.1452 120.237 14.1881 120.152 14.2308C120.152 14.3163 120.152 14.4017 120.152 14.4872C120.11 14.4872 120.068 14.4872 120.025 14.4872C120.025 14.6154 120.025 14.7436 120.025 14.8718C119.983 14.8718 119.941 14.8718 119.898 14.8718C119.856 15.6409 119.814 16.4104 119.771 17.1795C119.771 18.5673 119.729 20.0706 120.279 20.8974C120.406 20.9829 120.533 21.0683 120.66 21.1538C121.723 22.2423 123.086 22.5638 125.233 22.5641C125.868 22.5641 126.503 22.5641 127.138 22.5641C127.138 22.5214 127.138 22.4786 127.138 22.4359C127.434 22.4359 127.731 22.4359 128.027 22.4359C128.027 22.3932 128.027 22.3504 128.027 22.3077C128.196 22.3077 128.366 22.3077 128.535 22.3077C128.535 22.265 128.535 22.2222 128.535 22.1795C128.662 22.1795 128.789 22.1795 128.916 22.1795C128.916 22.1368 128.916 22.094 128.916 22.0513C129.085 22.0086 129.255 21.9658 129.424 21.9231C129.424 21.8804 129.424 21.8376 129.424 21.7949C129.509 21.7949 129.593 21.7949 129.678 21.7949C129.72 21.7094 129.763 21.624 129.805 21.5385C129.89 21.5385 129.974 21.5385 130.059 21.5385C130.323 21.3482 130.961 20.2336 131.075 19.8718C131.075 19.4018 131.075 18.9315 131.075 18.4615C131.118 18.4615 131.16 18.4615 131.202 18.4615C131.202 17.7778 131.202 17.094 131.202 16.4102C131.16 16.4102 131.118 16.4102 131.075 16.4102C130.899 15.7832 131.169 15.1237 130.948 14.6154C130.906 14.6154 130.864 14.6154 130.821 14.6154C130.779 14.4445 130.737 14.2735 130.694 14.1026C130.609 14.0599 130.525 14.017 130.44 13.9744C130.44 13.8888 130.44 13.8035 130.44 13.7179C130.355 13.6752 130.271 13.6324 130.186 13.5897C130.186 13.547 130.186 13.5042 130.186 13.4615C130.101 13.4615 130.017 13.4615 129.932 13.4615C129.89 13.376 129.847 13.2906 129.805 13.2051C129.678 13.1624 129.551 13.1196 129.424 13.0769C129.424 13.0342 129.424 12.9914 129.424 12.9487C128.162 12.2683 125.928 12.282 123.963 12.3077ZM86.4944 33.3333C86.96 33.3333 87.4259 33.3333 87.8915 33.3333C87.8915 36.2818 87.8915 39.231 87.8915 42.1795C87.4259 42.1795 86.96 42.1795 86.4944 42.1795C86.4944 39.231 86.4944 36.2818 86.4944 33.3333ZM100.085 33.3333C100.55 33.3333 101.016 33.3333 101.482 33.3333C101.482 34.5297 101.482 35.7267 101.482 36.9231C101.524 36.9231 101.566 36.9231 101.609 36.9231C101.986 36.2317 102.53 36.0037 103.641 36.0256C103.789 36.2001 103.873 36.2215 104.149 36.282C104.278 36.5232 104.561 36.8088 104.657 37.0513C105.02 37.9722 104.785 40.9072 104.784 42.1795C104.318 42.1795 103.852 42.1795 103.387 42.1795C103.387 40.8549 103.387 39.5297 103.387 38.2051C103.345 38.2051 103.302 38.2051 103.26 38.2051C103.218 37.9487 103.175 37.6923 103.133 37.4359C102.739 37.2253 102.905 37.1926 102.244 37.1795C102.127 37.3273 101.92 37.3538 101.863 37.4359C101.278 38.2673 101.475 40.7505 101.482 42.1795C101.016 42.1795 100.55 42.1795 100.085 42.1795C100.085 39.231 100.085 36.2818 100.085 33.3333ZM130.186 33.3333C130.694 33.3333 131.202 33.3333 131.71 33.3333C131.71 36.2818 131.71 39.231 131.71 42.1795C131.202 42.1795 130.694 42.1795 130.186 42.1795C130.186 39.231 130.186 36.2818 130.186 33.3333ZM145.173 33.3333C145.682 33.3333 146.19 33.3333 146.698 33.3333C146.698 34.5297 146.698 35.7267 146.698 36.9231C146.74 36.9231 146.782 36.9231 146.825 36.9231C146.945 36.4061 147.971 35.681 148.857 36.0256C148.857 36.0683 148.857 36.1111 148.857 36.1538C148.941 36.1538 149.026 36.1538 149.111 36.1538C149.111 36.1965 149.111 36.2394 149.111 36.282C149.238 36.3247 149.365 36.3676 149.492 36.4103C149.534 36.5385 149.577 36.6667 149.619 36.7949C149.661 36.7949 149.704 36.7949 149.746 36.7949C149.746 36.9231 149.746 37.0513 149.746 37.1795C149.788 37.1795 149.831 37.1795 149.873 37.1795C149.873 37.3504 149.873 37.5214 149.873 37.6923C149.915 37.6923 149.958 37.6923 150 37.6923C150 39.1878 150 40.6838 150 42.1795C149.534 42.1795 149.068 42.1795 148.603 42.1795C148.619 40.5047 148.596 38.7737 148.349 37.4359C148.222 37.3932 148.095 37.3504 147.968 37.3077C147.968 37.265 147.968 37.2222 147.968 37.1795C147.798 37.1795 147.629 37.1795 147.46 37.1795C147.327 37.3464 147.2 37.3704 147.079 37.5641C146.48 38.171 146.687 40.9136 146.698 42.1795C146.19 42.1795 145.682 42.1795 145.173 42.1795C145.173 39.231 145.173 36.2818 145.173 33.3333ZM43.8187 33.8461C44.3267 33.8461 44.8348 33.8461 45.3428 33.8461C45.3428 34.2735 45.3428 34.7009 45.3428 35.1282C44.8348 35.1282 44.3267 35.1282 43.8187 35.1282C43.8187 34.7009 43.8187 34.2735 43.8187 33.8461ZM61.3462 33.8461C61.8542 33.8461 62.3623 33.8461 62.8703 33.8461C62.8703 34.2735 62.8703 34.7009 62.8703 35.1282C62.3623 35.1282 61.8542 35.1282 61.3462 35.1282C61.3462 34.7009 61.3462 34.2735 61.3462 33.8461ZM32.3877 42.1795C32.3877 39.4874 32.3877 36.7946 32.3877 34.1026C33.0266 33.8629 34.2061 33.9679 35.0549 33.9744C35.3123 34.1949 35.8527 34.0929 36.198 34.2308C36.198 34.2735 36.198 34.3163 36.198 34.359C36.325 34.359 36.452 34.359 36.5791 34.359C36.5791 34.4017 36.5791 34.4445 36.5791 34.4872C36.7484 34.5299 36.9178 34.5727 37.0871 34.6154C37.1294 34.7009 37.1718 34.7863 37.2141 34.8718C37.4681 35.0854 37.7222 35.2992 37.9762 35.5128C38.1676 35.8024 38.4628 36.8603 38.4842 37.3077C38.6316 40.3783 37.665 41.5153 35.436 42.1795C34.42 42.1795 33.4037 42.1795 32.3877 42.1795ZM70.11 34.359C70.11 34.9572 70.11 35.5556 70.11 36.1538C70.5333 36.1538 70.9567 36.1538 71.3801 36.1538C71.3801 36.4956 71.3801 36.8377 71.3801 37.1795C70.999 37.1795 70.618 37.1795 70.237 37.1795C69.9534 37.952 70.1035 39.3894 70.11 40.3846C70.1523 40.3846 70.1947 40.3846 70.237 40.3846C70.237 40.5555 70.237 40.7265 70.237 40.8974C70.5752 41.0785 70.773 41.1577 71.3801 41.1538C71.3782 41.6132 71.4441 41.8479 71.5071 42.1795C70.4604 42.3883 69.858 42.4401 69.2209 41.7949C69.1362 41.7522 69.0516 41.7094 68.9669 41.6667C68.5043 40.9485 68.6897 38.3745 68.7128 37.1795C68.4165 37.1795 68.1201 37.1795 67.8238 37.1795C67.8238 36.8377 67.8238 36.4956 67.8238 36.1538C68.1201 36.1538 68.4165 36.1538 68.7128 36.1538C68.7128 35.7265 68.7128 35.2991 68.7128 34.8718C68.8399 34.8291 68.9669 34.7863 69.0939 34.7436C69.2749 34.5592 69.803 34.4172 70.11 34.359ZM138.95 34.359C138.95 34.9572 138.95 35.5556 138.95 36.1538C139.373 36.1538 139.797 36.1538 140.22 36.1538C140.22 36.4956 140.22 36.8377 140.22 37.1795C139.839 37.1795 139.458 37.1795 139.077 37.1795C138.77 38.0164 138.943 39.5761 138.95 40.641C139.485 41.0994 139.124 41.1696 140.22 41.1538C140.22 41.4956 140.22 41.8377 140.22 42.1795C139.544 42.3087 138.994 42.2486 138.315 42.1795C138.047 41.7279 137.723 41.7526 137.68 41.0256C137.489 40.8097 137.553 40.2794 137.553 39.8718C137.553 38.9745 137.553 38.0768 137.553 37.1795C137.214 37.1795 136.875 37.1795 136.537 37.1795C136.537 36.8804 136.537 36.5812 136.537 36.282C136.831 36.1699 137.096 36.1517 137.553 36.1538C137.553 35.6838 137.553 35.2136 137.553 34.7436C138.018 34.6154 138.484 34.4872 138.95 34.359ZM33.9118 41.0256C34.4622 40.9829 35.0126 40.9401 35.563 40.8974C35.563 40.8547 35.563 40.8119 35.563 40.7692C35.6477 40.7692 35.7323 40.7692 35.817 40.7692C35.817 40.7265 35.817 40.6837 35.817 40.641C36.0122 40.4928 36.0395 40.4658 36.325 40.3846C36.4279 39.9881 36.7128 39.7186 36.8331 39.359C36.8331 39.1453 36.8331 38.9315 36.8331 38.7179C36.8754 38.7179 36.9178 38.7179 36.9601 38.7179C37.2319 37.7614 36.7118 36.8224 36.5791 36.1538C36.3675 35.9829 36.1557 35.8119 35.944 35.641C35.944 35.5983 35.944 35.5555 35.944 35.5128C35.5392 35.2405 34.6989 35.1358 34.0388 35.1282C33.8594 35.621 33.9118 36.4901 33.9118 37.1795C33.9118 38.4614 33.9118 39.7437 33.9118 41.0256ZM54.3606 36.6667C54.3606 36.4958 54.3606 36.3247 54.3606 36.1538C54.8262 36.1538 55.2921 36.1538 55.7577 36.1538C55.8038 38.4609 56.0885 42.8692 55.1227 44.1026C54.9957 44.1453 54.8686 44.1881 54.7416 44.2308C54.6993 44.3163 54.6569 44.4017 54.6146 44.4872C54.403 44.5299 54.1913 44.5727 53.9796 44.6154C53.9796 44.6581 53.9796 44.7009 53.9796 44.7436C53.7678 44.7436 53.5562 44.7436 53.3445 44.7436C53.3445 44.7863 53.3445 44.8291 53.3445 44.8718C52.847 45.0136 51.2474 44.6686 51.0583 44.4872C51.016 44.4872 50.9736 44.4872 50.9313 44.4872C50.9313 44.1454 50.9313 43.8033 50.9313 43.4615C51.076 43.3155 50.9819 43.461 51.0583 43.2051C51.1006 43.2051 51.143 43.2051 51.1853 43.2051C51.4667 43.5337 53.0849 43.8237 53.5985 43.5897C53.6408 43.5042 53.6832 43.4188 53.7255 43.3333C53.8103 43.3333 53.8949 43.3333 53.9796 43.3333C54.0219 43.2051 54.0643 43.0769 54.1066 42.9487C54.1489 42.9487 54.1913 42.9487 54.2336 42.9487C54.2759 42.4359 54.3183 41.9231 54.3606 41.4103C54.3183 41.4103 54.2759 41.4103 54.2336 41.4103C53.8571 42.1013 53.3123 42.2068 52.2014 42.1795C51.815 41.7441 51.2404 41.7259 51.0583 41.0256C51.016 41.0256 50.9736 41.0256 50.9313 41.0256C50.889 40.7692 50.8466 40.5128 50.8043 40.2564C50.2603 38.6942 50.9994 36.6488 51.9474 36.1538C52.0744 36.1538 52.2014 36.1538 52.3284 36.1538C52.3284 36.1111 52.3284 36.0683 52.3284 36.0256C53.3391 35.7014 53.7816 36.497 54.3606 36.6667ZM81.0329 42.1795C80.6096 42.1795 80.1861 42.1795 79.7628 42.1795C79.7628 41.9658 79.7628 41.7522 79.7628 41.5385C79.6781 41.5385 79.5935 41.5385 79.5088 41.5385C79.4359 41.7962 79.524 41.6494 79.3818 41.7949C78.9633 42.3497 77.5254 42.5213 76.8415 42.0513C76.8415 42.0086 76.8415 41.9658 76.8415 41.9231C76.4269 41.5782 76.5631 41.6709 76.3335 41.1538C76.2912 41.1538 76.2488 41.1538 76.2065 41.1538C76.0841 40.8041 76.1907 39.8976 76.3335 39.7436C76.3758 39.6154 76.4182 39.4872 76.4605 39.359C76.5028 39.359 76.5452 39.359 76.5875 39.359C76.8137 39.0299 76.4501 39.1138 76.9686 38.9744C77.4595 38.3937 78.5521 38.4468 79.6358 38.4615C79.6442 37.8099 79.5225 37.5396 79.1277 37.3077C78.5537 36.7027 77.4098 37.3465 76.7145 37.4359C76.7145 37.0941 76.7145 36.752 76.7145 36.4103C76.8587 36.302 76.733 36.4265 76.8415 36.282C77.4612 36.2181 78.5888 35.767 79.3818 36.0256C79.6637 36.1176 79.9167 36.3314 80.2708 36.4103C80.4824 36.752 80.6943 37.0941 80.9059 37.4359C80.9059 37.9487 80.9059 38.4615 80.9059 38.9744C80.906 40.1118 81.0087 41.21 81.0329 42.1795ZM114.945 39.6154C113.76 39.6154 112.574 39.6154 111.389 39.6154C111.425 40.0688 111.56 40.2415 111.643 40.641C112.054 40.871 112.144 41.1152 112.786 41.1538C112.786 41.1965 112.786 41.2394 112.786 41.282C113.003 41.4078 114.237 41.0531 114.564 41.0256C114.564 41.3674 114.564 41.7095 114.564 42.0513C114.42 42.1595 114.545 42.035 114.437 42.1795C113.886 42.265 113.336 42.3504 112.786 42.4359C112.786 42.3932 112.786 42.3504 112.786 42.3077C112.532 42.3077 112.278 42.3077 112.024 42.3077C111.741 42.2129 111.489 42.0027 111.135 41.9231C110.965 41.7094 110.796 41.4958 110.626 41.282C110.584 41.282 110.542 41.282 110.499 41.282C110.499 41.1965 110.499 41.1111 110.499 41.0256C110.415 40.9829 110.33 40.9401 110.245 40.8974C109.889 40.2118 109.93 38.1345 110.245 37.4359C110.288 37.4359 110.33 37.4359 110.372 37.4359C110.372 37.3504 110.372 37.265 110.372 37.1795C110.415 37.1795 110.457 37.1795 110.499 37.1795C110.646 36.9833 110.674 36.955 110.753 36.6667C111.039 36.5868 111.067 36.5586 111.262 36.4103C111.262 36.3676 111.262 36.3247 111.262 36.282C111.473 36.2394 111.685 36.1965 111.897 36.1538C111.897 36.1111 111.897 36.0683 111.897 36.0256C112.644 35.7849 113.442 36.1832 113.929 36.282C114.098 36.4956 114.267 36.7094 114.437 36.9231C114.479 36.9231 114.522 36.9231 114.564 36.9231C114.942 37.5083 114.946 38.6427 114.945 39.6154ZM124.725 42.1795C124.344 42.1795 123.963 42.1795 123.582 42.1795C123.582 41.9658 123.582 41.7522 123.582 41.5385C123.249 41.6288 123.174 41.7411 122.947 41.9231C122.947 41.9658 122.947 42.0086 122.947 42.0513C122.777 42.094 122.608 42.1368 122.438 42.1795C122.438 42.2222 122.438 42.265 122.438 42.3077C122.015 42.3077 121.592 42.3077 121.168 42.3077C121.168 42.265 121.168 42.2222 121.168 42.1795C121.041 42.1795 120.914 42.1795 120.787 42.1795C120.533 41.8804 120.279 41.5812 120.025 41.282C119.983 40.9403 119.941 40.5982 119.898 40.2564C119.974 39.9383 120.2 39.5892 120.279 39.2308C120.433 39.1465 120.459 39.024 120.533 38.9744C120.618 38.9744 120.703 38.9744 120.787 38.9744C120.83 38.8888 120.872 38.8035 120.914 38.7179C121.509 38.4008 122.554 38.4608 123.455 38.4615C123.436 37.9281 123.295 37.8561 123.201 37.4359C123.074 37.3932 122.947 37.3504 122.82 37.3077C122.82 37.265 122.82 37.2222 122.82 37.1795C122.735 37.1795 122.65 37.1795 122.566 37.1795C122.566 37.1368 122.566 37.094 122.566 37.0513C121.968 36.8426 121.072 37.3733 120.533 37.4359C120.533 37.0941 120.533 36.752 120.533 36.4103C120.576 36.4103 120.618 36.4103 120.66 36.4103C120.66 36.3676 120.66 36.3247 120.66 36.282C121.275 36.2183 122.374 35.7605 123.201 36.0256C123.201 36.0683 123.201 36.1111 123.201 36.1538C123.412 36.1965 123.624 36.2394 123.836 36.282C124.104 36.7441 124.533 36.9609 124.725 37.5641C124.725 39.1024 124.725 40.6411 124.725 42.1795ZM43.9457 36.1538C44.4113 36.1538 44.8772 36.1538 45.3428 36.1538C45.3428 38.1622 45.3428 40.1711 45.3428 42.1795C44.8772 42.1795 44.4113 42.1795 43.9457 42.1795C43.9457 40.1711 43.9457 38.1622 43.9457 36.1538ZM61.3462 36.1538C61.8542 36.1538 62.3623 36.1538 62.8703 36.1538C62.8703 38.1622 62.8703 40.1711 62.8703 42.1795C62.3623 42.1795 61.8542 42.1795 61.3462 42.1795C61.3462 40.1711 61.3462 38.1622 61.3462 36.1538ZM52.5824 37.3077C52.4977 37.5641 52.4131 37.8205 52.3284 38.0769C52.2861 38.0769 52.2437 38.0769 52.2014 38.0769C52.2014 38.3333 52.2014 38.5897 52.2014 38.8461C52.1906 39.1146 52.1688 38.9765 52.0744 39.1026C52.0744 39.1453 52.0744 39.1881 52.0744 39.2308C52.1167 39.2308 52.1591 39.2308 52.2014 39.2308C52.3778 40.1542 52.126 40.8009 52.9635 41.0256C52.9635 41.0683 52.9635 41.1111 52.9635 41.1538C53.1328 41.1538 53.3022 41.1538 53.4715 41.1538C53.7239 40.8518 53.984 40.8528 54.1066 40.3846C54.6838 39.8229 54.2398 38.1849 54.1066 37.5641C53.8678 37.4209 53.5085 36.9588 53.0905 37.0513C53.0905 37.094 53.0905 37.1368 53.0905 37.1795C52.9212 37.2222 52.7518 37.265 52.5824 37.3077ZM111.389 38.5897C112.15 38.5897 112.913 38.5897 113.675 38.5897C113.64 38.3485 113.549 38.3381 113.548 38.3333C113.548 38.1196 113.548 37.9059 113.548 37.6923C113.505 37.6923 113.463 37.6923 113.421 37.6923C113.285 37.0858 112.915 37.0227 112.151 37.0513C111.968 37.3673 111.752 37.4087 111.643 37.8205C111.6 37.8205 111.558 37.8205 111.516 37.8205C111.473 38.0769 111.431 38.3333 111.389 38.5897ZM79.2548 41.0256C79.2971 40.8974 79.3395 40.7692 79.3818 40.641C79.4241 40.641 79.4665 40.641 79.5088 40.641C79.5511 40.2137 79.5935 39.7863 79.6358 39.359C79.0855 39.4017 78.535 39.4445 77.9846 39.4872C77.7076 39.9554 77.4803 39.9347 77.4766 40.7692C77.5189 40.7692 77.5613 40.7692 77.6036 40.7692C77.6036 40.8547 77.6036 40.9401 77.6036 41.0256C77.6459 41.0256 77.6883 41.0256 77.7306 41.0256C77.7729 41.1111 77.8153 41.1965 77.8576 41.282C78.1962 41.282 78.5351 41.282 78.8737 41.282C79.0169 41.0617 78.9541 41.1083 79.2548 41.0256ZM123.455 39.359C122.578 39.3442 122.167 39.4856 121.549 39.6154C121.38 39.9982 121.294 40.2628 121.295 40.8974C121.813 41.2008 121.772 41.2914 122.693 41.282C122.875 40.966 123.091 40.9246 123.201 40.5128C123.449 40.2703 123.461 39.8659 123.455 39.359Z" fill="white"/>
<path fill-rule="evenodd" clip-rule="evenodd" d="M18.6706 4.10257C19.1787 4.10257 19.6867 4.10257 20.1948 4.10257C20.1948 4.14526 20.1948 4.18808 20.1948 4.23077C20.3641 4.27347 20.5335 4.31629 20.7028 4.35898C20.7028 4.40167 20.7028 4.44449 20.7028 4.48718C20.9568 4.70077 21.2108 4.91462 21.4649 5.12821C21.4649 5.21372 21.4649 5.29911 21.4649 5.38462C21.6522 5.56526 21.8788 6.55872 21.7189 7.05129C21.6766 7.05129 21.6342 7.05129 21.5919 7.05129C21.5496 7.26501 21.5072 7.47872 21.4649 7.69231C21.2108 7.90603 20.9568 8.11975 20.7028 8.33334C20.7028 8.37603 20.7028 8.41885 20.7028 8.46154C20.258 8.75424 19.4116 8.72103 18.6706 8.71795C18.4438 8.46565 18.4209 8.61052 18.1626 8.46154C18.1626 8.41885 18.1626 8.37603 18.1626 8.33334C18.0779 8.33334 17.9933 8.33334 17.9086 8.33334C17.8238 8.20513 17.7392 8.07693 17.6545 7.94872C17.6122 7.94872 17.5698 7.94872 17.5275 7.94872C17.5275 7.86321 17.5275 7.77783 17.5275 7.69231C17.4428 7.64962 17.3582 7.6068 17.2735 7.56411C17.2735 7.4359 17.2735 7.3077 17.2735 7.17949C17.2312 7.17949 17.1888 7.17949 17.1465 7.17949C17.1042 6.8377 17.0618 6.49565 17.0195 6.15385C17.0618 6.15385 17.1042 6.15385 17.1465 6.15385C17.1465 5.94026 17.1465 5.72642 17.1465 5.51283C17.1888 5.51283 17.2312 5.51283 17.2735 5.51283C17.3479 5.20539 17.6954 4.63975 17.9086 4.48718C17.9933 4.48718 18.0779 4.48718 18.1626 4.48718C18.2049 4.40167 18.2473 4.31629 18.2896 4.23077C18.4166 4.23077 18.5436 4.23077 18.6706 4.23077C18.6706 4.18808 18.6706 4.14526 18.6706 4.10257ZM10.5419 5.00001C10.9345 4.89488 11.2017 4.59808 11.558 4.48718C12.1194 4.31244 12.5575 4.66244 12.9551 4.7436C13.0821 4.91449 13.2091 5.08552 13.3362 5.25642C13.3785 5.25642 13.4209 5.25642 13.4632 5.25642C13.6102 5.47154 13.4606 5.55026 13.7172 5.76924C13.7524 6.28808 13.9114 6.71308 13.5902 7.05129C13.4563 7.70821 13.0434 7.7936 12.7011 8.20513C12.1393 8.24821 11.5586 8.44898 11.177 8.07693C10.7671 7.98077 10.3878 7.58975 10.2879 7.17949C10.0346 6.93693 10.2843 7.11347 10.1609 6.79488C9.84031 5.9677 10.3619 5.64667 10.5419 5.00001ZM5.7155 5.00001C6.09653 5.0427 6.47756 5.08552 6.85859 5.12821C6.98561 5.29911 7.11262 5.47013 7.23963 5.64103C7.48819 5.8836 7.49962 6.28795 7.49365 6.79488C7.22362 7.03603 7.18882 7.36398 6.85859 7.56411C6.61867 7.82052 6.79344 7.5677 6.47756 7.69231C5.87299 7.93077 5.7489 7.69488 5.20745 7.56411C4.91063 7.01757 4.70716 6.93398 4.69941 6.02565C4.7417 6.02565 4.78412 6.02565 4.82642 6.02565C4.82642 5.89744 4.82642 5.76924 4.82642 5.64103C4.91114 5.59834 4.99572 5.55552 5.08044 5.51283C5.08044 5.47013 5.08044 5.42731 5.08044 5.38462C5.12274 5.38462 5.16516 5.38462 5.20745 5.38462C5.24975 5.29911 5.29217 5.21372 5.33446 5.12821C5.46147 5.12821 5.58848 5.12821 5.7155 5.12821C5.7155 5.08552 5.7155 5.0427 5.7155 5.00001ZM0.508044 5.51283C0.804361 5.51283 1.1008 5.51283 1.39712 5.51283C1.67413 5.98103 1.90148 5.96039 1.90517 6.79488C1.44132 7.07449 1.46177 7.30398 0.635055 7.3077C0.635055 7.26501 0.635055 7.22218 0.635055 7.17949C0.550339 7.17949 0.465749 7.17949 0.381033 7.17949C0.338738 7.09398 0.296317 7.0086 0.254022 6.92308C0.211727 6.92308 0.169306 6.92308 0.127011 6.92308C-0.171973 6.29603 0.367824 5.75398 0.508044 5.51283ZM24.2591 9.35898C24.5554 9.35898 24.8519 9.35898 25.1482 9.35898C25.43 9.45219 25.6843 9.6618 26.0373 9.7436C26.2066 9.95731 26.376 10.171 26.5453 10.3846C26.5876 10.3846 26.63 10.3846 26.6723 10.3846C26.8177 10.6053 27.2116 11.8121 27.0533 12.3077C26.9625 12.5921 26.7516 12.8483 26.6723 13.2051C26.503 13.3333 26.3336 13.4615 26.1643 13.5897C26.1643 13.6324 26.1643 13.6753 26.1643 13.718C25.6293 14.0936 24.9372 14.1063 24.0051 14.1026C23.7798 13.8486 23.7551 13.995 23.497 13.8462C23.497 13.8035 23.497 13.7606 23.497 13.718C23.4123 13.718 23.3277 13.718 23.243 13.718C23.1583 13.5897 23.0737 13.4615 22.989 13.3333C22.9467 13.3333 22.9043 13.3333 22.862 13.3333C22.862 13.2478 22.862 13.1624 22.862 13.0769C22.7773 13.0342 22.6927 12.9914 22.608 12.9487C22.3533 12.5292 22.3478 11.8378 22.3539 11.1539C22.3962 11.1539 22.4387 11.1539 22.4809 11.1539C22.4809 11.0256 22.4809 10.8974 22.4809 10.7692C22.6927 10.4701 22.9044 10.1709 23.116 9.8718C23.2007 9.8718 23.2853 9.8718 23.37 9.8718C23.4123 9.78629 23.4547 9.7009 23.497 9.61539C23.7511 9.5727 24.0051 9.52988 24.2591 9.48719C24.2591 9.44449 24.2591 9.40167 24.2591 9.35898ZM16.6384 9.8718C17.3902 9.86013 17.7517 10.0146 18.2896 10.1282C18.4166 10.2991 18.5436 10.4701 18.6706 10.641C18.7129 10.641 18.7553 10.641 18.7976 10.641C18.9335 10.85 19.231 11.9581 19.0517 12.4359C19.0094 12.4359 18.9669 12.4359 18.9246 12.4359C18.8823 12.6068 18.8399 12.7778 18.7976 12.9487C18.7553 12.9487 18.7129 12.9487 18.6706 12.9487C18.5859 13.0769 18.5013 13.2051 18.4166 13.3333C17.9967 13.6168 16.9045 13.8459 16.5114 13.4615C16.1406 13.371 16.215 13.2856 16.0034 13.0769C15.3925 12.4745 15.3354 12.4013 15.3683 11.1539C15.5973 10.9556 15.6639 10.5991 15.8764 10.3846C16.0889 10.1701 16.4416 10.1026 16.6384 9.8718ZM10.7959 10.3846C11.3451 10.3771 11.8002 10.4374 12.1931 10.5128C12.5103 11.0662 12.8066 11.1241 12.8281 12.0513C12.7858 12.0513 12.7434 12.0513 12.7011 12.0513C12.6588 12.2649 12.6164 12.4787 12.5741 12.6923C12.3462 13.023 11.6345 13.1994 11.05 13.2051C10.7096 12.8235 10.3252 12.9376 10.1609 12.3077C9.97227 12.1035 10.0222 11.5523 10.0339 11.1539C10.3443 10.9558 10.1124 11.0012 10.2879 10.7692C10.3901 10.6342 10.6697 10.5437 10.7959 10.3846ZM6.09653 10.7692C6.30813 10.8119 6.51998 10.8547 6.73158 10.8974C6.97227 11.3149 7.20546 11.3632 7.23963 12.0513C6.7119 12.5086 7.05114 12.6962 5.96952 12.6923C5.57121 12.2171 5.34577 12.3576 5.33446 11.4103C5.37676 11.4103 5.41918 11.4103 5.46147 11.4103C5.46147 11.3247 5.46147 11.2394 5.46147 11.1539C5.54619 11.1112 5.63078 11.0683 5.7155 11.0256C5.7155 10.983 5.7155 10.9401 5.7155 10.8974C5.84251 10.8974 5.96952 10.8974 6.09653 10.8974C6.09653 10.8547 6.09653 10.8119 6.09653 10.7692ZM29.4666 14.7436C29.8052 14.7436 30.144 14.7436 30.4826 14.7436C30.7645 14.8368 31.0186 15.0465 31.3717 15.1282C31.6832 15.6383 32.7306 16.4605 32.3878 17.5641C32.3455 17.5641 32.3031 17.5641 32.2608 17.5641C32.2608 17.735 32.2608 17.906 32.2608 18.0769C32.2185 18.0769 32.1761 18.0769 32.1338 18.0769C31.9729 18.7942 30.6587 19.8845 29.4666 19.4872C29.185 19.3933 28.9296 19.1865 28.5775 19.1026C28.4505 18.9317 28.3235 18.7606 28.1964 18.5897C28.1542 18.5897 28.1117 18.5897 28.0694 18.5897C27.7003 18.0317 27.6855 17.354 27.6884 16.4103C27.9183 16.209 27.7971 16.1547 27.9424 15.8974C27.9847 15.8974 28.0271 15.8974 28.0694 15.8974C28.0694 15.8119 28.0694 15.7265 28.0694 15.641C28.2387 15.5128 28.4082 15.3846 28.5775 15.2564C28.5775 15.2137 28.5775 15.1709 28.5775 15.1282C28.6622 15.1282 28.7468 15.1282 28.8315 15.1282C28.8315 15.0855 28.8315 15.0427 28.8315 15C29.0432 14.9573 29.255 14.9145 29.4666 14.8718C29.4666 14.8291 29.4666 14.7863 29.4666 14.7436ZM23.8781 18.5897C23.7511 18.6324 23.624 18.6753 23.497 18.718C23.497 18.7606 23.497 18.8035 23.497 18.8462C23.4123 18.8462 23.3277 18.8462 23.243 18.8462C23.243 18.8889 23.243 18.9317 23.243 18.9744C22.897 19.1015 21.9993 18.9862 21.8459 18.8462C21.1262 18.6699 21.1473 18.2018 20.7028 17.8205C20.6879 17.3801 20.6178 16.643 20.8298 16.4103C21.0469 15.4501 21.8943 15.223 23.116 15.2564C23.3124 15.4876 23.6656 15.5547 23.8781 15.7692C24.0906 15.9837 24.1575 16.3397 24.3861 16.5385C24.3438 17.0513 24.3014 17.5641 24.2591 18.0769C24.2168 18.0769 24.1744 18.0769 24.1321 18.0769C23.9893 18.2817 23.9592 18.2967 23.8781 18.5897ZM16.1304 15.7692C16.5246 15.7551 17.0717 15.709 17.2735 15.8974C17.6656 15.9878 17.8138 16.1473 17.9086 16.5385C18.2693 16.8897 18.0757 17.2606 18.0356 17.8205C17.4532 18.1686 17.4873 18.5437 16.5114 18.5897C16.5114 18.5471 16.5114 18.5042 16.5114 18.4615C16.2998 18.4189 16.0881 18.376 15.8764 18.3333C15.7772 18.1497 15.5246 17.8191 15.3683 17.6923C15.3608 17.138 15.4207 16.6786 15.4953 16.2821C15.6772 16.1819 16.0048 15.9269 16.1304 15.7692ZM11.304 16.1539C11.558 16.1965 11.812 16.2394 12.066 16.2821C12.5084 17.0121 12.7264 16.8371 12.3201 17.8205C11.5801 18.194 11.1633 18.206 10.7959 17.4359C10.7536 17.4359 10.7112 17.4359 10.6689 17.4359C10.6689 17.2222 10.6689 17.0086 10.6689 16.7949C10.774 16.5168 11.1226 16.365 11.304 16.1539ZM34.801 20.1282C35.1396 20.1282 35.4785 20.1282 35.8171 20.1282C36.0989 20.2214 36.3531 20.4312 36.7062 20.5128C36.8787 20.8251 37.192 20.9364 37.3412 21.1539C37.4882 21.3678 37.3391 21.4477 37.5953 21.6667C37.6376 22.0085 37.68 22.3505 37.7223 22.6923C37.5953 23.0769 37.4683 23.4615 37.3412 23.8462C37.1295 24.0171 36.9179 24.1881 36.7062 24.359C36.7062 24.4017 36.7062 24.4445 36.7062 24.4872C36.4876 24.634 35.292 25.0315 34.801 24.8718C34.5193 24.7801 34.2654 24.5672 33.9119 24.4872C33.7849 24.3163 33.6579 24.1453 33.5309 23.9744C33.4886 23.9744 33.4462 23.9744 33.4039 23.9744C33.4039 23.8889 33.4039 23.8035 33.4039 23.718C33.3192 23.6753 33.2346 23.6324 33.1499 23.5898C32.86 23.0286 33.093 21.9863 33.1499 21.4103C33.4611 21.2114 33.2279 21.2631 33.4039 21.0256C33.5732 20.8974 33.7426 20.7692 33.9119 20.641C33.9119 20.5983 33.9119 20.5555 33.9119 20.5128C33.9967 20.5128 34.0812 20.5128 34.166 20.5128C34.166 20.4701 34.166 20.4273 34.166 20.3846C34.3776 20.3419 34.5894 20.2991 34.801 20.2564C34.801 20.2137 34.801 20.1709 34.801 20.1282ZM27.1804 20.641C28.3468 20.599 29.2481 20.775 29.4666 21.6667C29.7333 21.9277 29.7305 22.4031 29.7206 22.9487C29.6783 22.9487 29.6359 22.9487 29.5936 22.9487C29.5936 23.0769 29.5936 23.2051 29.5936 23.3333C29.5088 23.376 29.4243 23.4189 29.3395 23.4615C29.1005 23.821 29.1885 23.9747 28.7045 24.1026C28.4395 24.4137 27.8963 24.3748 27.3074 24.359C27.3074 24.3163 27.3074 24.2735 27.3074 24.2308C27.1804 24.2308 27.0533 24.2308 26.9263 24.2308C26.884 24.1453 26.8416 24.0599 26.7993 23.9744C26.7146 23.9744 26.63 23.9744 26.5453 23.9744C26.4004 23.8596 26.2489 23.3827 26.0373 23.2051C25.9983 22.5576 25.8649 22.1021 26.1643 21.5385C26.2066 21.5385 26.249 21.5385 26.2913 21.5385C26.2913 21.453 26.2913 21.3676 26.2913 21.2821C26.5876 21.0685 26.884 20.8546 27.1804 20.641ZM21.8459 21.0256C22.2951 21.0623 22.4662 21.1985 22.862 21.2821C22.9612 21.4656 23.2138 21.7963 23.37 21.9231C23.3775 22.4774 23.3177 22.9368 23.243 23.3333C23.0611 23.4335 22.7336 23.6885 22.608 23.8462C22.0588 23.8537 21.6037 23.7933 21.2108 23.718C21.0211 23.3959 20.4282 22.9039 20.5758 22.3077C20.6181 22.3077 20.6605 22.3077 20.7028 22.3077C20.7451 22.0941 20.7875 21.8803 20.8298 21.6667C20.9568 21.5812 21.0838 21.4958 21.2108 21.4103C21.2108 21.3676 21.2108 21.3247 21.2108 21.2821C21.4226 21.2394 21.6343 21.1965 21.8459 21.1539C21.8459 21.1112 21.8459 21.0683 21.8459 21.0256ZM16.6384 21.5385C16.8925 21.5812 17.1465 21.624 17.4005 21.6667C17.685 22.1604 17.7865 22.0695 17.7815 22.9487C17.6545 23.0342 17.5275 23.1196 17.4005 23.2051C17.4005 23.2478 17.4005 23.2906 17.4005 23.3333C17.3158 23.3333 17.2312 23.3333 17.1465 23.3333C17.1465 23.376 17.1465 23.4189 17.1465 23.4615C16.5376 23.6592 15.7575 22.8317 16.0034 22.1795C16.1083 21.9013 16.4573 21.7499 16.6384 21.5385ZM29.3395 25.5128C30.5798 25.4899 31.0059 25.5346 31.6257 26.1539C31.7105 26.1965 31.795 26.2394 31.8798 26.2821C31.8798 26.3676 31.8798 26.453 31.8798 26.5385C31.9221 26.5385 31.9645 26.5385 32.0068 26.5385C32.1278 26.696 32.1018 26.7859 32.2608 26.9231C32.3031 27.3931 32.3455 27.8633 32.3878 28.3333C32.3455 28.3333 32.3031 28.3333 32.2608 28.3333C32.2608 28.4615 32.2608 28.5898 32.2608 28.718C32.2185 28.718 32.1761 28.718 32.1338 28.718C32.1338 28.8035 32.1338 28.8889 32.1338 28.9744C31.8798 29.2735 31.6257 29.5727 31.3717 29.8718C31.2024 29.9145 31.033 29.9573 30.8637 30C30.8637 30.0427 30.8637 30.0855 30.8637 30.1282C29.8081 30.5839 28.2699 29.9101 28.0694 29.1026C27.655 28.7424 27.6737 27.9751 27.6884 27.1795C27.9001 26.8377 28.1117 26.4956 28.3235 26.1539C28.6621 25.9403 29.0009 25.7264 29.3395 25.5128ZM23.8781 26.4103C23.9591 26.7033 23.9892 26.7186 24.1321 26.9231C24.1744 26.9231 24.2168 26.9231 24.2591 26.9231C24.2591 27.0513 24.2591 27.1795 24.2591 27.3077C24.3014 27.3077 24.3438 27.3077 24.3861 27.3077C24.5937 27.956 24.2199 28.54 24.1321 28.9744C23.6468 29.2708 23.0592 30.1105 21.9729 29.7436C21.9729 29.7009 21.9729 29.6581 21.9729 29.6154C21.8459 29.6154 21.7189 29.6154 21.5919 29.6154C21.5919 29.5727 21.5919 29.5299 21.5919 29.4872C21.389 29.3431 21.3743 29.3124 21.0838 29.2308C21.0415 29.1026 20.9991 28.9744 20.9568 28.8462C20.9145 28.8462 20.8721 28.8462 20.8298 28.8462C20.8298 28.7606 20.8298 28.6753 20.8298 28.5898C20.7875 28.5898 20.7451 28.5898 20.7028 28.5898C20.5768 28.2405 20.6911 27.3344 20.8298 27.1795C21.0044 26.4531 21.4682 26.4744 21.8459 26.0256C22.3115 26.0256 22.7774 26.0256 23.243 26.0256C23.243 26.0683 23.243 26.1112 23.243 26.1539C23.3277 26.1539 23.4123 26.1539 23.497 26.1539C23.497 26.1965 23.497 26.2394 23.497 26.2821C23.624 26.3248 23.7511 26.3676 23.8781 26.4103ZM17.7815 26.7949C17.7815 26.8804 17.7815 26.9658 17.7815 27.0513C17.8663 27.094 17.9508 27.1368 18.0356 27.1795C18.0356 27.3504 18.0356 27.5214 18.0356 27.6923C18.0779 27.6923 18.1203 27.6923 18.1626 27.6923C18.2496 28.0765 17.9752 28.386 17.9086 28.718C17.7267 28.8181 17.3991 29.0731 17.2735 29.2308C16.7243 29.2383 16.2692 29.178 15.8764 29.1026C15.7772 28.919 15.5246 28.5883 15.3683 28.4615C15.3608 27.9072 15.4207 27.4478 15.4953 27.0513C16.0224 26.7455 16.1575 26.4522 17.0195 26.4103C17.0195 26.453 17.0195 26.4958 17.0195 26.5385C17.1465 26.5385 17.2735 26.5385 17.4005 26.5385C17.4005 26.5812 17.4005 26.624 17.4005 26.6667C17.5275 26.7094 17.6545 26.7522 17.7815 26.7949ZM11.304 26.9231C11.8627 26.9144 12.1088 26.9746 12.3201 27.3077C12.9293 27.8556 12.0921 29.1386 11.304 28.8462C11.304 28.8035 11.304 28.7606 11.304 28.718C11.2193 28.718 11.1347 28.718 11.05 28.718C10.9044 28.6194 10.5175 27.9583 10.6689 27.5641C10.7112 27.5641 10.7536 27.5641 10.7959 27.5641C10.7959 27.4786 10.7959 27.3932 10.7959 27.3077C10.8382 27.3077 10.8807 27.3077 10.9229 27.3077C10.9652 27.2222 11.0077 27.1368 11.05 27.0513C11.1347 27.0513 11.2193 27.0513 11.304 27.0513C11.304 27.0086 11.304 26.9658 11.304 26.9231ZM22.989 35C22.9092 34.7119 22.882 34.6833 22.735 34.4872C22.6927 34.4872 22.6503 34.4872 22.608 34.4872C22.5657 34.2736 22.5232 34.0598 22.4809 33.8462C22.4387 33.8462 22.3962 33.8462 22.3539 33.8462C22.0871 32.9982 22.6163 32.3349 22.735 31.7949C22.9043 31.6667 23.0737 31.5385 23.243 31.4103C23.243 31.3676 23.243 31.3247 23.243 31.2821C23.3277 31.2821 23.4123 31.2821 23.497 31.2821C23.497 31.2394 23.497 31.1965 23.497 31.1539C23.7509 31.0069 23.8073 31.1317 24.0051 30.8974C25.3034 30.8532 26.4311 31.0737 26.6723 32.0513C27.069 32.3868 27.1981 33.4831 26.9263 34.1026C26.5158 35.0381 25.6513 35.6745 24.2591 35.641C24.2591 35.5983 24.2591 35.5555 24.2591 35.5128C24.1321 35.5128 24.0051 35.5128 23.8781 35.5128C23.5707 35.3621 23.3817 35.0998 22.989 35ZM17.0195 31.2821C17.5994 31.326 17.93 31.5548 18.4166 31.6667C18.5013 31.7949 18.5859 31.9231 18.6706 32.0513C18.7129 32.0513 18.7553 32.0513 18.7976 32.0513C19.079 32.4858 19.0557 33.1212 19.0517 33.8462C18.6544 34.2063 18.6579 34.7071 18.0356 34.8718C17.7597 35.1585 17.213 35.1404 16.6384 35.1282C16.4421 34.8971 16.0889 34.8299 15.8764 34.6154C15.6639 34.4009 15.597 34.0449 15.3683 33.8462C15.3525 33.0112 15.4435 32.1398 15.8764 31.7949C15.9611 31.7949 16.0457 31.7949 16.1304 31.7949C16.1304 31.7522 16.1304 31.7094 16.1304 31.6667C16.2848 31.5439 16.3754 31.5706 16.5114 31.4103C16.6807 31.4103 16.8502 31.4103 17.0195 31.4103C17.0195 31.3676 17.0195 31.3247 17.0195 31.2821ZM11.05 31.7949C11.8296 31.77 12.4252 31.959 12.5741 32.5641C12.8031 32.7873 12.8275 33.1274 12.8281 33.5898C12.45 33.9333 12.563 34.3213 11.939 34.4872C11.5351 34.8757 10.7675 34.4458 10.4149 34.359C10.3726 34.2308 10.3302 34.1026 10.2879 33.9744C10.2456 33.9744 10.2032 33.9744 10.1609 33.9744C10.1609 33.8889 10.1609 33.8035 10.1609 33.718C10.1186 33.718 10.0762 33.718 10.0339 33.718C9.80512 33.0626 10.2784 32.2359 10.5419 32.0513C10.7522 31.904 10.829 32.0456 11.05 31.7949ZM5.96952 32.3077C6.22354 32.3077 6.47756 32.3077 6.73158 32.3077C6.8163 32.4359 6.90089 32.5641 6.98561 32.6923C7.0279 32.6923 7.07032 32.6923 7.11262 32.6923C7.11262 32.7778 7.11262 32.8632 7.11262 32.9487C7.15491 32.9487 7.19733 32.9487 7.23963 32.9487C7.46647 33.6557 6.62756 34.1883 6.09653 34.2308C5.81113 33.9101 5.60931 34.1077 5.46147 33.5898C4.95241 33.0439 5.75868 32.5532 5.96952 32.3077ZM18.6706 36.2821C19.1362 36.2821 19.6021 36.2821 20.0677 36.2821C20.0677 36.3248 20.0677 36.3676 20.0677 36.4103C20.2795 36.453 20.4911 36.4958 20.7028 36.5385C20.8721 36.7521 21.0415 36.9658 21.2108 37.1795C21.2531 37.1795 21.2956 37.1795 21.3379 37.1795C21.4226 37.4359 21.5072 37.6923 21.5919 37.9487C21.6342 37.9487 21.6766 37.9487 21.7189 37.9487C21.9441 38.5864 21.5299 39.724 21.3379 40C21.1685 40.1282 20.9991 40.2564 20.8298 40.3846C20.7875 40.4701 20.7451 40.5555 20.7028 40.641C20.4892 40.7891 20.4158 40.6449 20.1948 40.8974C19.4802 40.9044 18.8491 40.8254 18.2896 40.7692C18.0901 40.4521 17.5941 40.2812 17.4005 40C17.2538 39.7869 17.4014 39.7068 17.1465 39.4872C17.1019 38.8965 16.9769 38.7041 17.1465 38.2051C17.1465 38.0342 17.1465 37.8632 17.1465 37.6923C17.1888 37.6923 17.2312 37.6923 17.2735 37.6923C17.3468 37.3917 17.6987 36.8109 17.9086 36.6667C17.9933 36.6667 18.0779 36.6667 18.1626 36.6667C18.1626 36.624 18.1626 36.5812 18.1626 36.5385C18.4212 36.39 18.4466 36.5369 18.6706 36.2821ZM11.685 36.6667C12.2649 36.7107 12.5956 36.9394 13.0821 37.0513C13.1669 37.1795 13.2514 37.3077 13.3362 37.4359C13.3785 37.4359 13.4209 37.4359 13.4632 37.4359C13.7445 37.8704 13.7213 38.5058 13.7172 39.2308C13.3199 39.5909 13.3235 40.0917 12.7011 40.2564C12.134 40.8608 11.2387 40.2671 10.6689 40.1282C10.5856 39.9753 10.4634 39.9462 10.4149 39.8718C10.4149 39.7863 10.4149 39.7009 10.4149 39.6154C10.3302 39.5727 10.2456 39.5299 10.1609 39.4872C10.1186 39.0172 10.0762 38.5469 10.0339 38.0769C10.2878 37.8562 10.1411 37.7789 10.2879 37.5641C10.5842 37.3077 10.8807 37.0513 11.177 36.7949C11.3463 36.7949 11.5157 36.7949 11.685 36.7949C11.685 36.7522 11.685 36.7094 11.685 36.6667ZM5.7155 37.1795C6.35766 37.1758 6.52748 37.3313 6.98561 37.4359C7.28243 37.9824 7.4859 38.066 7.49365 38.9744C7.45136 38.9744 7.40893 38.9744 7.36664 38.9744C7.36664 39.0599 7.36664 39.1453 7.36664 39.2308C7.32434 39.2308 7.28192 39.2308 7.23963 39.2308C7.23963 39.3163 7.23963 39.4017 7.23963 39.4872C6.99437 39.8316 6.35119 40.0006 5.7155 40C5.7155 39.9573 5.7155 39.9145 5.7155 39.8718C5.58848 39.8718 5.46147 39.8718 5.33446 39.8718C5.20745 39.7009 5.08044 39.5299 4.95343 39.359C4.7003 39.1164 4.94975 39.2931 4.82642 38.9744C4.57887 38.3349 4.79873 37.9294 5.20745 37.5641C5.20745 37.5214 5.20745 37.4786 5.20745 37.4359C5.29217 37.4359 5.37676 37.4359 5.46147 37.4359C5.46147 37.3932 5.46147 37.3504 5.46147 37.3077C5.54619 37.3077 5.63078 37.3077 5.7155 37.3077C5.7155 37.265 5.7155 37.2222 5.7155 37.1795ZM0.635055 37.6923C0.889077 37.6923 1.1431 37.6923 1.39712 37.6923C1.68353 38.1878 1.88815 38.125 1.90517 38.9744C1.34022 39.3148 1.52388 39.4919 0.508044 39.4872C0.423328 39.359 0.338738 39.2308 0.254022 39.1026C0.211727 39.1026 0.169306 39.1026 0.127011 39.1026C0.127011 38.9744 0.127011 38.8462 0.127011 38.718C0.0847163 38.718 0.0422947 38.718 0 38.718C0.0847163 38.4615 0.169306 38.2051 0.254022 37.9487C0.416723 37.8731 0.525953 37.8223 0.635055 37.6923Z" fill="#E24230"/>
</g>
<defs>
<clipPath id="clip0_90_34">
<rect width="150" height="45" fill="white"/>
</clipPath>
</defs>
</svg>
