<svg width="108" height="108" viewBox="0 0 108 108" fill="none" xmlns="http://www.w3.org/2000/svg">
<g clip-path="url(#clip0_90_83)">
<path d="M36 0H72C73.1935 0 74.3381 0.476397 75.182 1.32439C76.0259 2.17238 76.5 3.3225 76.5 4.52174V26.6087H90C94.7739 26.6087 99.3523 28.5143 102.728 31.9062C106.104 35.2982 108 39.8987 108 44.6957V89.913C108 94.71 106.104 99.3105 102.728 102.702C99.3523 106.094 94.7739 108 90 108H18C13.2261 108 8.64773 106.094 5.27208 102.702C1.89642 99.3105 0 94.71 0 89.913V44.6957C0 39.8987 1.89642 35.2982 5.27208 31.9062C8.64773 28.5143 13.2261 26.6087 18 26.6087H31.5V4.52174C31.5 3.3225 31.9741 2.17238 32.818 1.32439C33.6619 0.476397 34.8065 0 36 0ZM68.5 26.6087V7.04348H39.5V26.6087H68.5ZM18 33.6522C15.6131 33.6522 12.3239 35.605 10.636 37.3009C8.94821 38.9969 7 42.2972 7 44.6957V89.913C7 92.3115 8.94821 95.6118 10.636 97.3077C12.3239 99.0037 15.6131 100.957 18 100.957H90C92.3869 100.957 95.6761 99.0037 97.364 97.3077C99.0518 95.6118 101 92.3115 101 89.913V44.6957C101 42.2972 99.0518 38.9969 97.364 37.3009C95.6761 35.605 92.3869 33.6522 90 33.6522H18Z" fill="url(#paint0_linear_90_83)"/>
<path d="M50.157 54.1646L50.5397 68.9523C51.8253 68.6623 53.42 68.2869 54.4063 68.0524L54.7841 53.5333C53.6555 53.6272 51.8548 53.8148 50.157 54.1646ZM52.9539 73.8233C52.9539 73.8233 51.4426 74.0877 50.682 74.3564L51.1236 91.3621C51.1236 92.2706 51.7272 93 52.4632 93C53.1992 93 53.8027 92.4029 53.8027 91.3621L54.264 73.5546L52.9539 73.8233ZM52.3896 42C50.9519 42 50 43.0237 50 44.2777V46.7131L50.054 48.7647C50.8832 48.6069 52.4485 48.3595 54.9656 48.1292L55 46.7174V44.2819C55.0049 43.0237 53.8273 42 52.3896 42Z" fill="url(#paint1_linear_90_83)"/>
<path d="M61.0083 49.4868C56.403 47.7775 55.5587 51.0632 55.4747 51.7727H55.4667V51.8654C55.4627 51.9219 55.4587 51.9582 55.4587 51.9582H55.4667C55.9188 53.857 56.2509 54.7278 60.6002 54.4738C64.8574 54.2239 64.9895 52.8894 64.9895 52.8894C64.9895 52.8894 65.4056 51.1196 61.0083 49.4868ZM58.0515 50.5834C58.0515 50.5834 58.6436 49.7327 59.5679 50.8898C59.5639 50.8898 58.7277 51.7203 58.0515 50.5834ZM50.2132 85.8593C49.7771 86.0649 48.7208 86.5285 47.1163 87.0647C44.2995 88.004 47.7485 88 47.7485 88C47.7485 88 48.7648 87.9194 50.2412 87.4598L50.2132 85.8593ZM55.0297 59.3358L54.9656 63.0569C56.8422 63.2142 58.1515 63.7584 58.5916 65.0727C59.776 68.6084 53.5782 68.9712 48.5527 70.6523C43.3192 72.402 43.8914 78.9936 50.1132 80.1869L50.0612 77.1915C49.9971 77.1713 49.9331 77.1471 49.8731 77.127C49.2329 76.873 48.6407 76.4174 48.4687 75.9699C48.3006 75.0225 49.1009 73.6558 51.7336 73.0511C56.515 71.9465 60.5522 71.2329 61.7525 68.9067C64.7974 63.0005 59.667 59.4165 55.0297 59.3358Z" fill="url(#paint2_linear_90_83)"/>
<path d="M58.0515 49C52.8306 49.3104 42.1522 50.5018 40.4496 55.368C38.2735 61.5976 44.5412 63.4686 47.612 63.0952C48.2853 63.0155 49.0454 62.9652 49.9358 62.8058L49.8707 59.2442C44.9929 59.4288 43.3684 57.9983 45.2014 56.035C47.5252 53.5474 52.1438 53.0745 55.7489 52.9528C55.7489 52.9528 55.3534 52.5 55.6767 51C56 49.5 58.0515 49 58.0515 49Z" fill="url(#paint3_linear_90_83)"/>
<path fill-rule="evenodd" clip-rule="evenodd" d="M55.2856 78.066C55.2301 78.0612 55.1757 78.0564 55.1217 78.0517L54.9656 78.0379L54.9135 80.8108C56.4815 81.1506 55.9168 81.9854 54.9135 83.2187C54.9005 83.2355 54.8831 83.2523 54.87 83.2691L54.8179 86C55.1915 85.7609 55.565 85.505 55.9385 85.2197C57.0924 84.3342 57.4505 83.9085 58.0758 83.165C58.1278 83.1033 58.1816 83.0393 58.2378 82.9728C58.2614 82.9447 58.2855 82.9163 58.3101 82.8873C59.5219 81.1128 59.4698 78.3986 55.4 78.0756C55.3611 78.0724 55.3231 78.0692 55.2856 78.066Z" fill="url(#paint4_linear_90_83)"/>
</g>
<defs>
<linearGradient id="paint0_linear_90_83" x1="0" y1="0" x2="99.1198" y2="115.613" gradientUnits="userSpaceOnUse">
<stop stop-color="#4091DB"/>
<stop offset="1" stop-color="#35D0FA"/>
</linearGradient>
<linearGradient id="paint1_linear_90_83" x1="0" y1="0" x2="99.1198" y2="115.613" gradientUnits="userSpaceOnUse">
<stop stop-color="#4091DB"/>
<stop offset="1" stop-color="#35D0FA"/>
</linearGradient>
<linearGradient id="paint2_linear_90_83" x1="0" y1="0" x2="99.1198" y2="115.613" gradientUnits="userSpaceOnUse">
<stop stop-color="#4091DB"/>
<stop offset="1" stop-color="#35D0FA"/>
</linearGradient>
<linearGradient id="paint3_linear_90_83" x1="0" y1="0" x2="99.1198" y2="115.613" gradientUnits="userSpaceOnUse">
<stop stop-color="#4091DB"/>
<stop offset="1" stop-color="#35D0FA"/>
</linearGradient>
<linearGradient id="paint4_linear_90_83" x1="0" y1="0" x2="99.1198" y2="115.613" gradientUnits="userSpaceOnUse">
<stop stop-color="#4091DB"/>
<stop offset="1" stop-color="#35D0FA"/>
</linearGradient>
<clipPath id="clip0_90_83">
<rect width="108" height="108" fill="white"/>
</clipPath>
</defs>
</svg>
