<svg width="108" height="108" viewBox="0 0 108 108" fill="none" xmlns="http://www.w3.org/2000/svg">
<path d="M68.3592 56.3444C69.0955 57.0778 69.9759 57.4249 71.0003 57.3858C72.0214 57.3434 72.9001 56.9556 73.6365 56.2222C74.3728 55.4889 74.741 54.6121 74.741 53.592C74.741 52.5751 74.3728 51.7 73.6365 50.9667L66.0274 43.5111C66.9274 42.1259 67.6032 40.6593 68.0548 39.1111C68.5032 37.563 68.7274 35.9333 68.7274 34.2222C68.7274 29.4148 67.0305 25.3603 63.6366 22.0587C60.2395 18.7603 56.2092 17.1111 51.5455 17.1111C46.8819 17.1111 42.8532 18.7603 39.4594 22.0587C36.0623 25.3603 34.3637 29.4148 34.3637 34.2222C34.3637 39.0296 36.0623 43.0841 39.4594 46.3858C42.8532 49.6841 46.8819 51.3333 51.5455 51.3333C53.2637 51.3333 54.8805 51.1492 56.3957 50.7809C57.9077 50.4159 59.4001 49.7852 60.8728 48.8889L68.3592 56.3444ZM51.5455 44C48.8455 44 46.535 43.0418 44.6139 41.1253C42.6895 39.2121 41.7274 36.9111 41.7274 34.2222C41.7274 31.5333 42.6895 29.2307 44.6139 27.3142C46.535 25.401 48.8455 24.4444 51.5455 24.4444C54.1637 24.4444 56.4546 25.401 58.4183 27.3142C60.3819 29.2307 61.3637 31.5333 61.3637 34.2222C61.3637 36.9111 60.4032 39.2121 58.4821 41.1253C56.5577 43.0418 54.2455 44 51.5455 44ZM14.7274 73.3333C12.0274 73.3333 9.71682 72.3767 7.79572 70.4636C5.87136 68.5471 4.90918 66.2444 4.90918 63.5556V9.77778C4.90918 7.08889 5.87136 4.78622 7.79572 2.86978C9.71682 0.956592 12.0274 0 14.7274 0H93.2728C95.9728 0 98.285 0.956592 100.209 2.86978C102.13 4.78622 103.091 7.08889 103.091 9.77778V63.5556C103.091 66.2444 102.13 68.5471 100.209 70.4636C98.285 72.3767 95.9728 73.3333 93.2728 73.3333H14.7274ZM11.7274 66.5556H96.2728V6.77778H11.7274V66.5556Z" fill="url(#paint0_linear_90_80)"/>
<path d="M1.41382 85.944C2.35309 86.648 3.51818 87 4.90909 87H103.091C104.482 87 105.647 86.648 106.586 85.944C107.529 85.2424 108 84.3722 108 83.3333C108 82.2944 107.529 81.4242 106.586 80.7227C105.647 80.0187 104.482 79.6667 103.091 79.6667H4.90909C3.51818 79.6667 2.35309 80.0187 1.41382 80.7227C0.471273 81.4242 0 82.2944 0 83.3333C0 84.3722 0.471273 85.2424 1.41382 85.944Z" fill="url(#paint1_linear_90_80)"/>
<path d="M1.41382 106.944C2.35309 107.648 3.51818 108 4.90909 108H103.091C104.482 108 105.647 107.648 106.586 106.944C107.529 106.242 108 105.372 108 104.333C108 103.294 107.529 102.424 106.586 101.723C105.647 101.019 104.482 100.667 103.091 100.667H4.90909C3.51818 100.667 2.35309 101.019 1.41382 101.723C0.471273 102.424 0 103.294 0 104.333C0 105.372 0.471273 106.242 1.41382 106.944Z" fill="url(#paint2_linear_90_80)"/>
<defs>
<linearGradient id="paint0_linear_90_80" x1="0" y1="0" x2="99.1198" y2="115.613" gradientUnits="userSpaceOnUse">
<stop stop-color="#4091DB"/>
<stop offset="1" stop-color="#35D0FA"/>
</linearGradient>
<linearGradient id="paint1_linear_90_80" x1="0" y1="0" x2="99.1198" y2="115.613" gradientUnits="userSpaceOnUse">
<stop stop-color="#4091DB"/>
<stop offset="1" stop-color="#35D0FA"/>
</linearGradient>
<linearGradient id="paint2_linear_90_80" x1="0" y1="0" x2="99.1198" y2="115.613" gradientUnits="userSpaceOnUse">
<stop stop-color="#4091DB"/>
<stop offset="1" stop-color="#35D0FA"/>
</linearGradient>
</defs>
</svg>
